<svg xmlns="http://www.w3.org/2000/svg" width="800" height="600" viewBox="0 0 800 600"><rect width="100%" height="100%" fill="#0d9488"/><path fill="#FFFFFF" d="M192.48 289.38h7.12l-14.86 37.45h-8.17l-14.86-37.45h7.45q1.02 0 1.7.48.67.47.89 1.2l7.23 20q.58 1.75 1.02 3.43t.77 3.36q.36-1.68.8-3.36t1.06-3.43l7.37-20q.26-.73.91-1.2.66-.48 1.57-.48m31.68 27.78v-6.32q-3.9.19-6.57.68-2.66.49-4.27 1.26-1.6.76-2.3 1.79-.69 1.02-.69 2.22 0 2.38 1.41 3.4 1.4 1.02 3.66 1.02 2.78 0 4.8-1 2.03-1.01 3.96-3.05m-19.05-19.68-1.6-2.88q6.46-5.91 15.54-5.91 3.29 0 5.88 1.07 2.59 1.08 4.38 3 1.79 1.91 2.72 4.58.93 2.66.93 5.84v23.65h-4.09q-1.27 0-1.97-.38-.69-.39-1.09-1.55l-.81-2.71q-1.42 1.28-2.77 2.25t-2.81 1.62q-1.46.66-3.12 1.01-1.66.34-3.67.34-2.37 0-4.38-.63-2.01-.64-3.47-1.92t-2.26-3.18q-.8-1.89-.8-4.41 0-1.43.47-2.83.48-1.41 1.55-2.68 1.08-1.28 2.79-2.41 1.72-1.13 4.22-1.97t5.82-1.37 7.59-.64v-2.19q0-3.76-1.6-5.57-1.61-1.8-4.64-1.8-2.19 0-3.63.51t-2.54 1.15l-1.99 1.15q-.89.51-1.98.51-.95 0-1.61-.5-.66-.49-1.06-1.15m65.52-3.46-2.37 3.28q-.41.51-.79.8-.38.3-1.11.3-.7 0-1.35-.42-.66-.42-1.57-.95t-2.17-.95-3.12-.42q-2.38 0-4.17.86-1.78.85-2.97 2.46t-1.77 3.89-.58 5.16q0 3 .63 5.33.64 2.34 1.85 3.93 1.2 1.58 2.92 2.4 1.71.83 3.87.83 2.15 0 3.48-.53t2.25-1.17q.91-.64 1.58-1.17.68-.53 1.52-.53 1.09 0 1.64.84l2.59 3.29q-1.49 1.75-3.24 2.93-1.76 1.19-3.64 1.9t-3.87 1.01q-1.98.29-3.96.29-3.46 0-6.53-1.3-3.07-1.29-5.36-3.78-2.3-2.48-3.64-6.07-1.33-3.6-1.33-8.2 0-4.12 1.19-7.64 1.18-3.53 3.48-6.1t5.7-4.03q3.39-1.46 7.81-1.46 4.2 0 7.35 1.35 3.16 1.35 5.68 3.87m25.77 23.14v-6.32q-3.91.19-6.57.68-2.67.49-4.27 1.26-1.61.76-2.3 1.79-.7 1.02-.7 2.22 0 2.38 1.41 3.4 1.4 1.02 3.67 1.02 2.77 0 4.8-1 2.02-1.01 3.96-3.05m-19.06-19.68-1.6-2.88q6.46-5.91 15.55-5.91 3.28 0 5.87 1.07 2.6 1.08 4.38 3 1.79 1.91 2.72 4.58.93 2.66.93 5.84v23.65h-4.08q-1.28 0-1.97-.38-.7-.39-1.1-1.55l-.8-2.71q-1.43 1.28-2.78 2.25t-2.81 1.62q-1.46.66-3.12 1.01-1.66.34-3.67.34-2.37 0-4.38-.63-2-.64-3.46-1.92t-2.27-3.18q-.8-1.89-.8-4.41 0-1.43.47-2.83.48-1.41 1.56-2.68 1.07-1.28 2.79-2.41 1.71-1.13 4.21-1.97t5.83-1.37q3.32-.53 7.59-.64v-2.19q0-3.76-1.61-5.57-1.6-1.8-4.63-1.8-2.19 0-3.64.51-1.44.51-2.53 1.15-1.1.63-1.99 1.15-.9.51-1.99.51-.95 0-1.61-.5-.65-.49-1.06-1.15m48.81 29.93q-4.9 0-7.51-2.75-2.61-2.76-2.61-7.61v-20.92h-3.83q-.73 0-1.24-.47-.51-.48-.51-1.42v-3.58l6.02-.99 1.9-10.22q.18-.73.69-1.13.52-.4 1.32-.4h4.67v11.79h10v6.42h-10v20.3q0 1.75.86 2.74.86.98 2.35.98.84 0 1.41-.2.56-.2.98-.42t.75-.42.66-.2q.4 0 .66.2.25.2.54.6l2.7 4.38q-1.97 1.65-4.52 2.48-2.56.84-5.29.84m14.96-38.03h9.05v37.45h-9.05zm10.29-10.91q0 1.17-.47 2.19-.48 1.02-1.26 1.79-.79.76-1.84 1.22-1.06.46-2.27.46-1.16 0-2.21-.46-1.04-.46-1.8-1.22-.77-.77-1.22-1.79-.46-1.02-.46-2.19 0-1.21.46-2.27.45-1.05 1.22-1.82.76-.77 1.8-1.22 1.05-.46 2.21-.46 1.21 0 2.27.46 1.05.45 1.84 1.22.78.77 1.26 1.82.47 1.06.47 2.27m24.53 10.33q4.16 0 7.57 1.35 3.42 1.35 5.85 3.83 2.42 2.48 3.74 6.06 1.31 3.58 1.31 7.99 0 4.46-1.31 8.03-1.32 3.58-3.74 6.1-2.43 2.52-5.85 3.87-3.41 1.35-7.57 1.35-4.2 0-7.63-1.35t-5.86-3.87q-2.42-2.52-3.76-6.1-1.33-3.57-1.33-8.03 0-4.41 1.33-7.99 1.34-3.58 3.76-6.06 2.43-2.48 5.86-3.83t7.63-1.35m0 31.64q4.67 0 6.92-3.14 2.24-3.14 2.24-9.19 0-6.06-2.24-9.24-2.25-3.17-6.92-3.17-4.74 0-7.03 3.19-2.28 3.19-2.28 9.22 0 6.02 2.28 9.18 2.29 3.15 7.03 3.15m33.18-29.42.62 2.96q1.13-1.13 2.39-2.1t2.67-1.64q1.4-.68 3.01-1.06 1.6-.38 3.5-.38 3.07 0 5.44 1.04t3.96 2.92 2.41 4.49.82 5.75v23.83h-9.02V303q0-3.44-1.57-5.32-1.56-1.87-4.78-1.87-2.33 0-4.38 1.05-2.04 1.06-3.87 2.89v27.08h-9.01v-37.45h5.51q1.75 0 2.3 1.64m63.58 36.39q-4.89 0-7.5-2.75-2.61-2.76-2.61-7.61v-20.92h-3.83q-.73 0-1.24-.47-.51-.48-.51-1.42v-3.58l6.02-.99 1.9-10.22q.18-.73.69-1.13t1.32-.4h4.67v11.79h10v6.42h-10v20.3q0 1.75.86 2.74.85.98 2.35.98.84 0 1.4-.2.57-.2.99-.42t.75-.42.66-.2q.4 0 .65.2.26.2.55.6l2.7 4.38q-1.97 1.65-4.52 2.48-2.56.84-5.3.84m22.63-35.77.55 4.24q1.75-3.36 4.16-5.28 2.41-1.91 5.7-1.91 2.59 0 4.16 1.13l-.59 6.75q-.18.66-.53.93-.34.28-.93.28-.55 0-1.62-.19-1.08-.18-2.1-.18-1.5 0-2.67.44-1.16.44-2.09 1.26t-1.65 1.99q-.71 1.17-1.33 2.66v23.07h-9.01v-37.45h5.29q1.39 0 1.93.49.55.5.73 1.77m39.06 25.52v-6.32q-3.91.19-6.57.68-2.67.49-4.27 1.26-1.61.76-2.3 1.79-.7 1.02-.7 2.22 0 2.38 1.41 3.4 1.4 1.02 3.67 1.02 2.77 0 4.8-1 2.02-1.01 3.96-3.05m-19.06-19.68-1.6-2.88q6.46-5.91 15.55-5.91 3.28 0 5.87 1.07 2.6 1.08 4.38 3 1.79 1.91 2.72 4.58.93 2.66.93 5.84v23.65h-4.08q-1.28 0-1.97-.38-.7-.39-1.1-1.55l-.8-2.71q-1.43 1.28-2.78 2.25t-2.81 1.62q-1.46.66-3.12 1.01-1.66.34-3.67.34-2.37 0-4.38-.63-2-.64-3.46-1.92t-2.27-3.18q-.8-1.89-.8-4.41 0-1.43.47-2.83.48-1.41 1.56-2.68 1.07-1.28 2.79-2.41 1.71-1.13 4.21-1.97t5.83-1.37q3.32-.53 7.59-.64v-2.19q0-3.76-1.61-5.57-1.6-1.8-4.63-1.8-2.19 0-3.64.51-1.44.51-2.53 1.15-1.1.63-1.99 1.15-.9.51-1.99.51-.95 0-1.61-.5-.65-.49-1.06-1.15m62.97-8.1h7.11l-14.85 37.45h-8.18l-14.85-37.45h7.44q1.03 0 1.7.48.68.47.9 1.2l7.22 20q.59 1.75 1.02 3.43.44 1.68.77 3.36.37-1.68.8-3.36.44-1.68 1.06-3.43l7.38-20q.25-.73.91-1.2.65-.48 1.57-.48m19.01 14.42h17.01q0-1.75-.49-3.3-.49-1.56-1.48-2.72-.98-1.17-2.5-1.85-1.51-.67-3.52-.67-3.91 0-6.15 2.22-2.25 2.23-2.87 6.32m23 5.44h-23.18q.22 2.88 1.02 4.98.81 2.1 2.12 3.47t3.12 2.04q1.81.68 4 .68t3.78-.51q1.58-.52 2.77-1.14t2.08-1.13 1.73-.51q1.14 0 1.68.84l2.59 3.29q-1.49 1.75-3.35 2.93-1.87 1.19-3.89 1.9-2.03.71-4.13 1.01-2.09.29-4.07.29-3.9 0-7.26-1.3-3.36-1.29-5.84-3.83t-3.9-6.28q-1.43-3.74-1.43-8.67 0-3.83 1.24-7.21 1.24-3.37 3.56-5.87t5.66-3.96 7.54-1.46q3.54 0 6.53 1.13t5.15 3.3q2.15 2.17 3.37 5.33 1.23 3.16 1.23 7.21 0 2.04-.44 2.76-.44.71-1.68.71m8.98-36.65h9.01v54.24h-9.01z"/></svg>