<svg xmlns="http://www.w3.org/2000/svg" width="800" height="600" viewBox="0 0 800 600"><rect width="100%" height="100%" fill="#0d9488"/><path fill="#FFFFFF" d="M165.13 288.795h9.55v39.5h-9.55zm10.86-11.51q0 1.23-.5 2.31t-1.33 1.88q-.83.81-1.94 1.29-1.12.48-2.39.48-1.23 0-2.33-.48t-1.91-1.29q-.8-.8-1.28-1.88-.49-1.08-.49-2.31 0-1.27.49-2.39.48-1.12 1.28-1.92.81-.81 1.91-1.29 1.1-.49 2.33-.49 1.27 0 2.39.49 1.11.48 1.94 1.29.83.8 1.33 1.92t.5 2.39m34.65 15.78-2.16 3.43q-.38.62-.8.87-.43.25-1.08.25-.7 0-1.48-.39-.79-.38-1.83-.87-1.04-.48-2.37-.86-1.33-.39-3.14-.39-2.81 0-4.41 1.2-1.6 1.19-1.6 3.11 0 1.28.83 2.14.83.87 2.2 1.52 1.36.66 3.1 1.18 1.73.52 3.52 1.13 1.79.62 3.52 1.41t3.1 2 2.2 2.91q.82 1.69.82 4.08 0 2.85-1.02 5.25-1.02 2.41-3.02 4.16t-4.95 2.73q-2.94.99-6.79.99-2.04 0-3.99-.37-1.94-.37-3.73-1.02t-3.31-1.54-2.68-1.93l2.2-3.61q.42-.66 1-1.01.58-.34 1.46-.34.89 0 1.68.5.78.5 1.82 1.08 1.04.57 2.45 1.08 1.4.5 3.56.5 1.69 0 2.91-.41 1.21-.4 2-1.06.79-.65 1.15-1.52.37-.86.37-1.79 0-1.38-.83-2.27t-2.19-1.54q-1.37-.65-3.12-1.17t-3.58-1.14-3.58-1.44q-1.75-.83-3.12-2.1t-2.19-3.12q-.83-1.85-.83-4.47 0-2.42.96-4.62.96-2.19 2.83-3.83 1.87-1.63 4.66-2.62 2.79-.98 6.45-.98 4.08 0 7.43 1.35t5.58 3.54m7.7-21.98h9.51v57.21h-9.51zm39.89 47.01v-6.66q-4.12.19-6.93.71t-4.51 1.33q-1.69.81-2.42 1.88-.74 1.08-.74 2.35 0 2.51 1.49 3.58 1.48 1.08 3.87 1.08 2.92 0 5.06-1.06t4.18-3.21m-20.1-20.75-1.7-3.05q6.82-6.23 16.41-6.23 3.46 0 6.19 1.13 2.74 1.14 4.62 3.16 1.89 2.02 2.87 4.83t.98 6.16v24.95h-4.31q-1.35 0-2.08-.4-.73-.41-1.15-1.64l-.85-2.85q-1.5 1.35-2.92 2.37-1.43 1.02-2.97 1.71t-3.29 1.06-3.87.37q-2.5 0-4.62-.68-2.12-.67-3.66-2.02t-2.38-3.35q-.85-2-.85-4.66 0-1.5.5-2.98t1.63-2.83q1.14-1.35 2.95-2.54t4.45-2.08q2.63-.89 6.14-1.44 3.5-.56 8.01-.68v-2.31q0-3.96-1.7-5.87-1.69-1.91-4.89-1.91-2.31 0-3.83.54t-2.67 1.22q-1.16.67-2.1 1.21-.95.54-2.1.54-1 0-1.69-.52-.7-.52-1.12-1.21m46.55-6.82.65 3.12q1.19-1.19 2.52-2.21t2.81-1.74q1.48-.71 3.18-1.11 1.69-.41 3.69-.41 3.24 0 5.74 1.1t4.18 3.08q1.67 1.98 2.54 4.74.87 2.75.87 6.06v25.14h-9.51v-25.14q0-3.62-1.66-5.6-1.66-1.99-5.04-1.99-2.47 0-4.62 1.12-2.16 1.12-4.08 3.04v28.57h-9.51v-39.5h5.81q1.85 0 2.43 1.73m59.98 26.07v-17.71q-1.62-1.97-3.52-2.78-1.91-.8-4.1-.8-2.16 0-3.89.8-1.74.81-2.97 2.45-1.23 1.63-1.88 4.16-.66 2.52-.66 5.95 0 3.46.56 5.87.56 2.4 1.6 3.92t2.54 2.2q1.5.67 3.35.67 2.96 0 5.04-1.23t3.93-3.5m0-45.51h9.51v57.21h-5.82q-1.88 0-2.38-1.73l-.81-3.81q-2.39 2.73-5.49 4.42-3.1 1.7-7.22 1.7-3.23 0-5.93-1.35-2.69-1.35-4.63-3.91-1.95-2.56-3.01-6.33t-1.06-8.62q0-4.39 1.2-8.17 1.19-3.77 3.42-6.54 2.24-2.77 5.36-4.33 3.11-1.56 7-1.56 3.31 0 5.66 1.04t4.2 2.81zm50.78 57.83q-5.16 0-7.91-2.91t-2.75-8.03v-22.06h-4.05q-.77 0-1.31-.5t-.54-1.5v-3.77l6.36-1.04 2-10.78q.19-.77.73-1.2.54-.42 1.39-.42h4.92v12.44h10.55v6.77h-10.55v21.41q0 1.85.91 2.89.9 1.03 2.48 1.03.89 0 1.49-.21.59-.21 1.03-.44.45-.23.79-.44.35-.21.7-.21.42 0 .69.21t.58.63l2.85 4.62q-2.08 1.73-4.78 2.62-2.69.89-5.58.89m32.96-40.74q4.38 0 7.98 1.43 3.6 1.42 6.16 4.04t3.95 6.39 1.39 8.43q0 4.7-1.39 8.47-1.39 3.78-3.95 6.43-2.56 2.66-6.16 4.08-3.6 1.43-7.98 1.43-4.43 0-8.05-1.43-3.62-1.42-6.18-4.08-2.56-2.65-3.97-6.43-1.4-3.77-1.4-8.47 0-4.66 1.4-8.43 1.41-3.77 3.97-6.39t6.18-4.04q3.62-1.43 8.05-1.43m0 33.38q4.92 0 7.29-3.31t2.37-9.7-2.37-9.74-7.29-3.35q-5.01 0-7.42 3.37-2.4 3.37-2.4 9.72t2.4 9.68q2.41 3.33 7.42 3.33m51.28-32.76h9.51v39.5h-5.82q-1.88 0-2.38-1.73l-.66-3.16q-2.42 2.46-5.35 3.99-2.93 1.52-6.89 1.52-3.23 0-5.72-1.1-2.48-1.1-4.18-3.1-1.69-2-2.56-4.76-.86-2.75-.86-6.06v-25.1h9.51v25.1q0 3.62 1.67 5.6 1.68 1.99 5.03 1.99 2.46 0 4.62-1.1 2.15-1.1 4.08-3.02zm27.29 2.39.58 4.46q1.85-3.54 4.39-5.56t6.01-2.02q2.73 0 4.39 1.19l-.62 7.12q-.19.7-.56.99-.36.28-.98.28-.58 0-1.71-.19-1.14-.19-2.22-.19-1.58 0-2.81.46t-2.21 1.33-1.73 2.1-1.41 2.81v24.33h-9.51v-39.5h5.58q1.47 0 2.04.52.58.52.77 1.87m20.64-2.39h9.55v39.5h-9.55zm10.86-11.51q0 1.23-.5 2.31t-1.33 1.88q-.83.81-1.95 1.29-1.11.48-2.38.48-1.23 0-2.33-.48t-1.91-1.29q-.81-.8-1.29-1.88t-.48-2.31q0-1.27.48-2.39t1.29-1.92q.81-.81 1.91-1.29 1.1-.49 2.33-.49 1.27 0 2.38.49 1.12.48 1.95 1.29.83.8 1.33 1.92t.5 2.39m34.65 15.78-2.16 3.43q-.38.62-.81.87-.42.25-1.08.25-.69 0-1.48-.39-.79-.38-1.83-.87-1.04-.48-2.36-.86-1.33-.39-3.14-.39-2.81 0-4.41 1.2-1.6 1.19-1.6 3.11 0 1.28.83 2.14.83.87 2.19 1.52 1.37.66 3.1 1.18 1.74.52 3.53 1.13 1.79.62 3.52 1.41t3.1 2 2.19 2.91q.83 1.69.83 4.08 0 2.85-1.02 5.25-1.02 2.41-3.02 4.16t-4.95 2.73q-2.94.99-6.79.99-2.04 0-3.99-.37-1.94-.37-3.73-1.02t-3.31-1.54q-1.53-.89-2.68-1.93l2.19-3.61q.43-.66 1.01-1.01.57-.34 1.46-.34.88 0 1.67.5t1.83 1.08q1.04.57 2.45 1.08 1.4.5 3.56.5 1.69 0 2.9-.41 1.22-.4 2.01-1.06.79-.65 1.15-1.52.37-.86.37-1.79 0-1.38-.83-2.27t-2.2-1.54q-1.36-.65-3.11-1.17-1.76-.52-3.58-1.14-1.83-.62-3.58-1.44-1.76-.83-3.12-2.1-1.37-1.27-2.2-3.12t-.83-4.47q0-2.42.97-4.62.96-2.19 2.83-3.83 1.86-1.63 4.66-2.62 2.79-.98 6.44-.98 4.09 0 7.43 1.35 3.35 1.35 5.59 3.54m17.09 35.23h-9.51v-39.5h5.82q1.84 0 2.42 1.73l.62 2.93q1.04-1.16 2.17-2.12 1.14-.96 2.43-1.66 1.29-.69 2.77-1.09 1.48-.41 3.25-.41 3.74 0 6.14 2.02 2.41 2.03 3.6 5.37.93-1.96 2.31-3.36 1.39-1.41 3.04-2.29 1.66-.89 3.53-1.31 1.86-.43 3.75-.43 3.27 0 5.81 1 2.55 1 4.28 2.93 1.73 1.92 2.64 4.7.9 2.77.9 6.35v25.14h-9.51v-25.14q0-3.77-1.65-5.68-1.66-1.91-4.86-1.91-1.46 0-2.71.51-1.25.5-2.19 1.44-.95.94-1.49 2.37-.54 1.42-.54 3.27v25.14h-9.54v-25.14q0-3.97-1.6-5.78t-4.68-1.81q-2.08 0-3.87 1.03-1.79 1.02-3.33 2.79z"/></svg>