<svg xmlns="http://www.w3.org/2000/svg" width="800" height="600" viewBox="0 0 800 600"><rect width="100%" height="100%" fill="#dc2626"/><path fill="#FFFFFF" d="M193.49 312.015v-21.39q-1.95-2.37-4.25-3.34-2.3-.98-4.95-.98-2.61 0-4.7.98-2.09.97-3.58 2.95-1.49 1.97-2.28 5.02t-.79 7.19q0 4.18.67 7.09.68 2.9 1.93 4.74 1.26 1.84 3.07 2.65 1.82.81 4.05.81 3.58 0 6.09-1.48 2.51-1.49 4.74-4.24m0-54.96h11.49v69.1h-7.02q-2.28 0-2.89-2.09l-.97-4.61q-2.89 3.31-6.63 5.35-3.74 2.05-8.72 2.05-3.9 0-7.16-1.63-3.25-1.63-5.6-4.72t-3.63-7.65-1.28-10.41q0-5.31 1.44-9.86 1.45-4.56 4.14-7.91 2.7-3.35 6.47-5.23 3.76-1.88 8.46-1.88 4 0 6.83 1.25 2.84 1.26 5.07 3.4zm23.21 21.39h11.53v47.71H216.7zm13.11-13.9q0 1.49-.6 2.79-.61 1.3-1.61 2.28-1 .97-2.35 1.55t-2.88.58q-1.49 0-2.81-.58-1.33-.58-2.31-1.55-.97-.98-1.55-2.28t-.58-2.79q0-1.54.58-2.89.58-1.34 1.55-2.32.98-.98 2.31-1.56 1.32-.58 2.81-.58 1.53 0 2.88.58t2.35 1.56 1.61 2.32q.6 1.35.6 2.89m20.09 15.99.79 3.77q1.44-1.44 3.04-2.67 1.61-1.24 3.4-2.1t3.83-1.34q2.05-.49 4.47-.49 3.9 0 6.93 1.32 3.02 1.33 5.04 3.72 2.03 2.4 3.07 5.72 1.05 3.33 1.05 7.33v30.36h-11.49v-30.36q0-4.38-2-6.77t-6.09-2.39q-2.97 0-5.58 1.34-2.6 1.35-4.93 3.68v34.5h-11.48v-47.71h7.02q2.23 0 2.93 2.09m42.87-2.09h11.53v47.71h-11.53zm13.11-13.9q0 1.49-.6 2.79-.61 1.3-1.61 2.28-.99.97-2.34 1.55t-2.89.58q-1.48 0-2.81-.58-1.32-.58-2.3-1.55-.98-.98-1.56-2.28t-.58-2.79q0-1.54.58-2.89.58-1.34 1.56-2.32t2.3-1.56q1.33-.58 2.81-.58 1.54 0 2.89.58t2.34 1.56q1 .98 1.61 2.32.6 1.35.6 2.89m20.09 15.99.79 3.77q1.44-1.44 3.05-2.67 1.6-1.24 3.39-2.1t3.84-1.34q2.04-.49 4.46-.49 3.91 0 6.93 1.32 3.02 1.33 5.05 3.72 2.02 2.4 3.07 5.72 1.04 3.33 1.04 7.33v30.36h-11.48v-30.36q0-4.38-2-6.77t-6.09-2.39q-2.98 0-5.58 1.34-2.61 1.35-4.93 3.68v34.5h-11.49v-47.71h7.02q2.23 0 2.93 2.09m59.94 20.6q2.14 0 3.72-.58t2.63-1.6q1.04-1.03 1.58-2.47.53-1.44.53-3.16 0-3.53-2.11-5.6-2.12-2.07-6.35-2.07t-6.35 2.07q-2.11 2.07-2.11 5.6 0 1.67.53 3.12.54 1.44 1.58 2.48 1.05 1.05 2.65 1.63 1.61.58 3.7.58m12.97 27.16q0-1.4-.83-2.28-.84-.88-2.28-1.37t-3.37-.72-4.1-.35q-2.16-.12-4.46-.21t-4.49-.37q-1.9 1.07-3.09 2.51-1.18 1.44-1.18 3.35 0 1.25.62 2.35.63 1.09 2 1.88t3.56 1.23 5.35.44q3.21 0 5.53-.49 2.33-.48 3.84-1.34t2.21-2.05q.69-1.19.69-2.58m-2.27-48.22h13.71v4.28q0 2.04-2.46 2.51l-4.28.79q.98 2.46.98 5.39 0 3.54-1.42 6.4t-3.93 4.85q-2.51 2-5.93 3.1-3.42 1.09-7.37 1.09-1.39 0-2.7-.14-1.3-.14-2.55-.37-2.24 1.35-2.24 3.02 0 1.44 1.33 2.12 1.32.67 3.51.95t4.98.35 5.71.3q2.93.23 5.72.81 2.79.59 4.98 1.84 2.19 1.26 3.51 3.42 1.33 2.16 1.33 5.56 0 3.16-1.56 6.13-1.56 2.98-4.51 5.31-2.96 2.32-7.26 3.74t-9.78 1.42q-5.4 0-9.4-1.05t-6.65-2.79-3.95-4.02-1.3-4.75q0-3.34 2.02-5.6 2.02-2.25 5.56-3.6-1.91-.98-3.02-2.61-1.12-1.62-1.12-4.27 0-1.07.39-2.21.4-1.14 1.17-2.26.76-1.11 1.93-2.11 1.16-1 2.74-1.79-3.63-1.96-5.7-5.21-2.07-3.26-2.07-7.63 0-3.53 1.42-6.39t3.96-4.88q2.53-2.03 5.99-3.1 3.47-1.07 7.56-1.07 3.07 0 5.77.63 2.69.63 4.93 1.84m59.47 46.82q-6.23 0-9.56-3.51-3.32-3.51-3.32-9.69v-26.65h-4.88q-.93 0-1.59-.6-.65-.61-.65-1.81v-4.56l7.68-1.26 2.41-13.02q.24-.93.89-1.44t1.67-.51h5.95v15.02h12.74v8.18h-12.74v25.86q0 2.23 1.1 3.48 1.09 1.26 3 1.26 1.07 0 1.79-.26.72-.25 1.25-.53.54-.28.95-.53.42-.26.84-.26.51 0 .84.26.32.25.7.76l3.44 5.58q-2.51 2.09-5.77 3.16-3.25 1.07-6.74 1.07m43.89-13.06v-8.05q-4.97.24-8.37.86-3.39.63-5.44 1.61-2.04.97-2.93 2.28-.88 1.3-.88 2.83 0 3.02 1.79 4.33 1.79 1.3 4.67 1.3 3.54 0 6.12-1.28t5.04-3.88m-24.27-25.07-2.04-3.67q8.23-7.53 19.8-7.53 4.19 0 7.49 1.37t5.58 3.81 3.47 5.84q1.18 3.39 1.18 7.44v30.13h-5.21q-1.62 0-2.51-.49-.88-.49-1.39-1.97l-1.03-3.45q-1.81 1.63-3.53 2.86-1.72 1.24-3.58 2.07-1.86.84-3.98 1.28-2.11.44-4.67.44-3.02 0-5.58-.81t-4.42-2.44-2.88-4.05q-1.02-2.41-1.02-5.62 0-1.82.6-3.61.61-1.79 1.98-3.41 1.37-1.63 3.56-3.07 2.18-1.44 5.37-2.51 3.18-1.07 7.41-1.75 4.23-.67 9.67-.81v-2.79q0-4.79-2.04-7.09-2.05-2.3-5.91-2.3-2.79 0-4.62.65-1.84.65-3.24 1.46-1.39.81-2.53 1.47-1.14.65-2.53.65-1.21 0-2.05-.63t-1.35-1.47m57.75 3.63v21.39q1.96 2.37 4.26 3.35t4.86.98q2.65 0 4.76-.96 2.12-.95 3.61-2.97 1.49-2.03 2.28-5.17.79-3.13.79-7.5 0-7.86-2.61-11.37-2.6-3.51-7.48-3.51-3.3 0-5.77 1.51-2.46 1.51-4.7 4.25m0-35.34v27.25q2.89-3.02 6.4-4.81t8.02-1.79q4.14 0 7.46 1.62 3.33 1.63 5.68 4.68 2.34 3.04 3.6 7.37 1.26 4.32 1.26 9.72 0 5.81-1.45 10.55-1.44 4.74-4.11 8.12-2.68 3.37-6.44 5.23-3.77 1.86-8.37 1.86-2.23 0-4.05-.44-1.81-.45-3.35-1.24-1.53-.79-2.81-1.93t-2.44-2.53l-.51 3.21q-.28 1.21-.95 1.72-.68.51-1.84.51h-7.58v-69.1zm41.44 0h11.48v69.1h-11.48zm32.03 39.76h21.67q0-2.23-.62-4.21-.63-1.98-1.89-3.46-1.25-1.49-3.18-2.35t-4.49-.86q-4.98 0-7.84 2.83-2.85 2.84-3.65 8.05m29.3 6.93h-29.53q.28 3.67 1.3 6.34 1.03 2.68 2.7 4.42 1.68 1.75 3.98 2.61t5.09.86 4.81-.65q2.02-.66 3.54-1.45 1.51-.79 2.65-1.44t2.2-.65q1.45 0 2.14 1.07l3.31 4.19q-1.91 2.23-4.28 3.74t-4.96 2.42q-2.58.9-5.25 1.28-2.67.37-5.18.37-4.98 0-9.26-1.65t-7.44-4.89q-3.16-3.23-4.97-7.99-1.82-4.77-1.82-11.05 0-4.88 1.58-9.18 1.59-4.3 4.54-7.49 2.95-3.18 7.21-5.04 4.25-1.86 9.6-1.86 4.51 0 8.32 1.44t6.56 4.21q2.74 2.76 4.3 6.79 1.56 4.02 1.56 9.18 0 2.6-.56 3.51t-2.14.91"/></svg>