<svg xmlns="http://www.w3.org/2000/svg" width="800" height="600" viewBox="0 0 800 600"><rect width="100%" height="100%" fill="#dc2626"/><path fill="#FFFFFF" d="m169.54 291.985.53 4.06q1.68-3.22 3.99-5.06t5.46-1.84q2.48 0 3.99 1.09l-.56 6.47q-.18.63-.51.9-.33.26-.89.26-.53 0-1.56-.18-1.03-.17-2.01-.17-1.44 0-2.56.42t-2.01 1.21q-.89.78-1.58 1.9-.68 1.12-1.27 2.56v22.12h-8.65v-35.91h5.08q1.33 0 1.85.47.53.47.7 1.7m25.31 11.65h16.31q0-1.68-.48-3.16-.47-1.49-1.41-2.61-.95-1.12-2.4-1.77t-3.38-.65q-3.74 0-5.9 2.14-2.15 2.13-2.74 6.05m22.05 5.22h-22.23q.21 2.76.98 4.78.77 2.01 2.03 3.32t2.99 1.96q1.74.65 3.84.65t3.62-.49 2.66-1.09q1.14-.59 1.99-1.08.86-.49 1.67-.49 1.08 0 1.61.8l2.48 3.15q-1.43 1.68-3.22 2.82-1.78 1.14-3.73 1.82-1.94.68-3.95.97-2.01.28-3.9.28-3.75 0-6.97-1.25-3.22-1.24-5.6-3.67-2.38-2.44-3.74-6.02-1.37-3.59-1.37-8.32 0-3.67 1.19-6.91t3.41-5.63q2.23-2.4 5.43-3.8t7.23-1.4q3.39 0 6.26 1.08 2.87 1.09 4.94 3.17 2.06 2.08 3.23 5.11 1.18 3.03 1.18 6.91 0 1.96-.42 2.65-.42.68-1.61.68m32.37-15.16-1.96 3.12q-.35.56-.73.79-.39.22-.98.22-.63 0-1.35-.35t-1.66-.78q-.95-.44-2.16-.79-1.2-.35-2.85-.35-2.55 0-4.01 1.08-1.45 1.09-1.45 2.84 0 1.15.75 1.94.76.79 2 1.38 1.24.6 2.82 1.07 1.57.47 3.2 1.03t3.2 1.28q1.58.72 2.82 1.82t1.99 2.64q.76 1.54.76 3.71 0 2.59-.93 4.78t-2.75 3.78-4.5 2.49q-2.67.89-6.17.89-1.86 0-3.63-.33-1.76-.34-3.39-.93-1.63-.6-3.01-1.4-1.38-.81-2.43-1.75l1.99-3.29q.39-.6.91-.91.53-.32 1.33-.32.81 0 1.52.46.72.45 1.67.98.94.52 2.22.98 1.28.45 3.24.45 1.54 0 2.64-.36 1.1-.37 1.82-.97.72-.59 1.05-1.38t.33-1.63q0-1.26-.75-2.06-.75-.81-2-1.4-1.24-.6-2.83-1.07t-3.26-1.03q-1.66-.56-3.25-1.31-1.59-.76-2.84-1.91-1.24-1.16-1.99-2.84t-.75-4.06q0-2.2.87-4.2.88-1.99 2.57-3.48 1.7-1.49 4.24-2.38t5.86-.89q3.71 0 6.76 1.22 3.04 1.23 5.07 3.22m18.87 32.59q-4.69 0-7.2-2.64-2.5-2.65-2.5-7.3v-20.06h-3.67q-.7 0-1.19-.45-.49-.46-.49-1.37v-3.43l5.77-.94 1.82-9.8q.18-.7.67-1.09.49-.38 1.26-.38h4.48v11.3h9.59v6.16h-9.59v19.46q0 1.69.82 2.63t2.26.94q.8 0 1.34-.19.55-.19.95-.4t.72-.4q.31-.2.63-.2.38 0 .63.2.24.19.52.57l2.59 4.2q-1.89 1.58-4.34 2.38-2.45.81-5.07.81m33.04-9.84v-6.05q-3.75.17-6.3.65-2.56.47-4.1 1.2-1.54.74-2.2 1.72-.67.98-.67 2.13 0 2.28 1.35 3.26t3.52.98q2.66 0 4.6-.96 1.94-.97 3.8-2.93m-18.27-18.86-1.54-2.77q6.19-5.67 14.91-5.67 3.15 0 5.63 1.04 2.49 1.03 4.2 2.87 1.72 1.83 2.61 4.39.89 2.55.89 5.6v22.68h-3.92q-1.22 0-1.89-.37-.66-.37-1.05-1.49l-.77-2.59q-1.36 1.23-2.66 2.16-1.29.92-2.69 1.55t-3 .97q-1.59.33-3.51.33-2.28 0-4.2-.61-1.93-.62-3.33-1.84-1.4-1.23-2.17-3.05t-.77-4.23q0-1.37.46-2.71.45-1.35 1.48-2.58 1.04-1.22 2.68-2.31 1.65-1.08 4.04-1.89 2.4-.8 5.59-1.31 3.18-.51 7.28-.61v-2.1q0-3.61-1.54-5.34t-4.45-1.73q-2.1 0-3.48.49t-2.43 1.1-1.91 1.1-1.91.49q-.91 0-1.54-.47t-1.01-1.1m57.12-7.77h8.64v35.91h-5.28q-1.72 0-2.17-1.58l-.6-2.87q-2.2 2.24-4.86 3.63-2.66 1.38-6.27 1.38-2.94 0-5.2-1-2.25-1-3.79-2.82t-2.33-4.32-.79-5.51v-22.82h8.65v22.82q0 3.29 1.52 5.09t4.57 1.8q2.24 0 4.2-.99 1.96-1 3.71-2.75zm24.81 2.17.53 4.06q1.68-3.22 3.99-5.06t5.46-1.84q2.48 0 3.99 1.09l-.56 6.47q-.18.63-.51.9-.33.26-.89.26-.53 0-1.56-.18-1.03-.17-2.01-.17-1.44 0-2.56.42t-2.01 1.21q-.89.78-1.58 1.9-.68 1.12-1.27 2.56v22.12h-8.65v-35.91h5.08q1.33 0 1.85.47.53.47.7 1.7m37.45 24.46v-6.05q-3.74.17-6.3.65-2.55.47-4.09 1.2-1.54.74-2.21 1.72-.66.98-.66 2.13 0 2.28 1.34 3.26 1.35.98 3.52.98 2.66 0 4.6-.96 1.95-.97 3.8-2.93m-18.27-18.86-1.54-2.77q6.2-5.67 14.91-5.67 3.15 0 5.64 1.04 2.48 1.03 4.2 2.87 1.71 1.83 2.6 4.39.9 2.55.9 5.6v22.68h-3.92q-1.23 0-1.89-.37-.67-.37-1.05-1.49l-.77-2.59q-1.37 1.23-2.66 2.16-1.3.92-2.7 1.55t-2.99.97q-1.59.33-3.52.33-2.27 0-4.2-.61-1.92-.62-3.32-1.84-1.4-1.23-2.17-3.05t-.77-4.23q0-1.37.45-2.71.46-1.35 1.49-2.58 1.03-1.22 2.68-2.31 1.64-1.08 4.04-1.89 2.4-.8 5.58-1.31 3.19-.51 7.28-.61v-2.1q0-3.61-1.54-5.34t-4.44-1.73q-2.1 0-3.49.49-1.38.49-2.43 1.1t-1.91 1.1q-.85.49-1.9.49-.91 0-1.54-.47t-1.02-1.1m42.32-6.2.59 2.84q1.09-1.09 2.29-2.01 1.21-.93 2.56-1.58t2.89-1.01q1.54-.37 3.36-.37 2.94 0 5.21 1 2.28.99 3.8 2.8 1.52 1.8 2.31 4.3t.79 5.51v22.86h-8.65v-22.86q0-3.29-1.5-5.09-1.51-1.8-4.59-1.8-2.24 0-4.2 1.01-1.96 1.02-3.71 2.77v25.97h-8.64v-35.91h5.28q1.68 0 2.21 1.57m43.96 34.9q-4.69 0-7.2-2.64-2.5-2.65-2.5-7.3v-20.06h-3.67q-.7 0-1.19-.45-.49-.46-.49-1.37v-3.43l5.77-.94 1.82-9.8q.18-.7.67-1.09.49-.38 1.26-.38h4.48v11.3h9.59v6.16h-9.59v19.46q0 1.69.82 2.63t2.26.94q.8 0 1.34-.19.55-.19.95-.4t.72-.4q.31-.2.63-.2.38 0 .63.2.24.19.52.57l2.59 4.2q-1.89 1.58-4.34 2.38-2.45.81-5.07.81m42.24-.56h-8.64v-29.4l-3.12-.49q-1.01-.21-1.63-.72-.61-.51-.61-1.45v-3.54h5.36v-2.66q0-3.08.92-5.53.93-2.45 2.66-4.16 1.74-1.72 4.22-2.63 2.49-.91 5.6-.91 2.49 0 4.62.67l-.17 4.34q-.04.49-.28.79-.25.29-.65.45t-.93.21q-.52.05-1.12.05-1.54 0-2.75.34-1.2.33-2.04 1.15t-1.28 2.17-.44 3.34v2.38h9.35v6.16h-9.07zm29.82-36.47q3.99 0 7.27 1.29 3.27 1.3 5.59 3.68 2.33 2.38 3.59 5.81t1.26 7.66q0 4.27-1.26 7.7t-3.59 5.85q-2.32 2.41-5.59 3.71-3.28 1.3-7.27 1.3-4.02 0-7.31-1.3t-5.62-3.71q-2.33-2.42-3.61-5.85-1.27-3.43-1.27-7.7 0-4.23 1.27-7.66 1.28-3.43 3.61-5.81t5.62-3.68q3.29-1.29 7.31-1.29m0 30.34q4.48 0 6.64-3.01 2.15-3.01 2.15-8.82t-2.15-8.85q-2.16-3.05-6.64-3.05-4.55 0-6.73 3.07-2.19 3.06-2.19 8.83 0 5.78 2.19 8.81 2.18 3.02 6.73 3.02m40.22-30.34q3.99 0 7.26 1.29 3.27 1.3 5.6 3.68t3.59 5.81 1.26 7.66q0 4.27-1.26 7.7t-3.59 5.85q-2.33 2.41-5.6 3.71t-7.26 1.3q-4.03 0-7.32-1.3t-5.62-3.71q-2.32-2.42-3.6-5.85t-1.28-7.7q0-4.23 1.28-7.66t3.6-5.81q2.33-2.38 5.62-3.68 3.29-1.29 7.32-1.29m0 30.34q4.48 0 6.63-3.01t2.15-8.82-2.15-8.85q-2.15-3.05-6.63-3.05-4.55 0-6.74 3.07-2.19 3.06-2.19 8.83 0 5.78 2.19 8.81 2.19 3.02 6.74 3.02m46.86-4.51v-16.1q-1.47-1.79-3.2-2.52-1.73-.74-3.73-.74-1.96 0-3.53.74-1.58.73-2.7 2.22t-1.71 3.78q-.6 2.29-.6 5.41 0 3.15.51 5.34.51 2.18 1.45 3.57.95 1.38 2.31 1.99 1.37.61 3.05.61 2.69 0 4.58-1.12t3.57-3.18m0-41.37h8.65v52.01h-5.29q-1.71 0-2.17-1.58l-.73-3.46q-2.17 2.48-4.99 4.02-2.82 1.55-6.56 1.55-2.94 0-5.39-1.23t-4.22-3.55q-1.77-2.33-2.73-5.76t-.96-7.84q0-3.99 1.08-7.42 1.09-3.43 3.12-5.95t4.86-3.94q2.84-1.42 6.37-1.42 3.01 0 5.15.95 2.13.94 3.81 2.55z"/></svg>