<svg xmlns="http://www.w3.org/2000/svg" width="800" height="600" viewBox="0 0 800 600"><rect width="100%" height="100%" fill="#2563eb"/><path fill="#FFFFFF" d="M169.41 295.035v15.18q1.38 1.68 3.02 2.38 1.63.69 3.55.69 1.84 0 3.33-.69 1.48-.7 2.52-2.11 1.04-1.42 1.6-3.58.57-2.17.57-5.1 0-2.97-.48-5.04-.48-2.06-1.37-3.35-.89-1.28-2.16-1.88-1.27-.59-2.89-.59-2.54 0-4.32 1.07-1.79 1.07-3.37 3.02m-1.09-8.41.66 3.13q2.08-2.34 4.72-3.79t6.2-1.45q2.78 0 5.07 1.15t3.96 3.35q1.66 2.19 2.57 5.41t.91 7.38q0 3.79-1.02 7.03-1.03 3.23-2.92 5.61-1.9 2.37-4.59 3.71-2.69 1.33-6.02 1.33-2.84 0-4.85-.87-2.02-.87-3.6-2.43v13.86h-8.15v-44.91h4.98q1.58 0 2.08 1.49m37.62.56.5 3.83q1.58-3.04 3.76-4.77 2.17-1.73 5.14-1.73 2.35 0 3.77 1.02l-.53 6.1q-.17.6-.48.84-.31.25-.84.25-.5 0-1.47-.16-.97-.17-1.9-.17-1.35 0-2.41.4-1.05.39-1.89 1.14-.84.74-1.49 1.79-.64 1.06-1.2 2.41v20.86h-8.15v-33.86h4.78q1.25 0 1.75.45.5.44.66 1.6m32.41-2.58q3.76 0 6.84 1.23 3.09 1.22 5.28 3.46 2.2 2.24 3.39 5.48 1.18 3.23 1.18 7.22 0 4.03-1.18 7.26-1.19 3.24-3.39 5.52-2.19 2.27-5.28 3.49-3.08 1.22-6.84 1.22-3.8 0-6.9-1.22t-5.3-3.49q-2.19-2.28-3.4-5.52-1.2-3.23-1.2-7.26 0-3.99 1.2-7.22 1.21-3.24 3.4-5.48 2.2-2.24 5.3-3.46 3.1-1.23 6.9-1.23m0 28.61q4.22 0 6.25-2.83 2.03-2.84 2.03-8.32t-2.03-8.35-6.25-2.87q-4.29 0-6.36 2.89-2.06 2.89-2.06 8.33 0 5.45 2.06 8.3 2.07 2.85 6.36 2.85m44.18-4.25v-15.18q-1.38-1.68-3.02-2.38-1.63-.69-3.51-.69-1.85 0-3.33.69-1.49.7-2.55 2.1-1.05 1.4-1.61 3.56t-.56 5.1q0 2.97.48 5.03.47 2.06 1.36 3.37.9 1.3 2.18 1.88 1.29.58 2.87.58 2.54 0 4.33-1.06 1.78-1.06 3.36-3m0-39.01h8.15v49.04h-4.98q-1.62 0-2.04-1.49l-.7-3.26q-2.04 2.34-4.7 3.79t-6.19 1.45q-2.77 0-5.08-1.15-2.31-1.16-3.98-3.35-1.66-2.19-2.57-5.43-.91-3.23-.91-7.39 0-3.76 1.03-7 1.02-3.23 2.93-5.61 1.92-2.37 4.59-3.71 2.67-1.33 6-1.33 2.84 0 4.86.89 2.01.89 3.59 2.4zm37.23 15.18h8.15v33.86h-4.99q-1.61 0-2.04-1.49l-.56-2.7q-2.08 2.11-4.59 3.41-2.51 1.31-5.91 1.31-2.77 0-4.9-.94t-3.58-2.66-2.19-4.07q-.74-2.36-.74-5.2v-21.52h8.15v21.52q0 3.1 1.43 4.8 1.44 1.7 4.31 1.7 2.11 0 3.96-.94t3.5-2.59zm42.6 4.19-2.14 2.97q-.37.46-.71.73-.35.26-1.01.26-.63 0-1.22-.38-.6-.38-1.42-.85-.83-.48-1.96-.86-1.14-.38-2.83-.38-2.14 0-3.76.77-1.61.78-2.69 2.23-1.07 1.45-1.6 3.52-.53 2.06-.53 4.66 0 2.71.58 4.82t1.67 3.55 2.64 2.18 3.5.74q1.94 0 3.15-.48 1.2-.48 2.03-1.05.82-.58 1.43-1.06t1.37-.48q.99 0 1.49.76l2.34 2.97q-1.35 1.58-2.94 2.66-1.58 1.07-3.28 1.71-1.7.65-3.5.91t-3.58.26q-3.13 0-5.91-1.17-2.77-1.17-4.85-3.41-2.08-2.25-3.28-5.5-1.21-3.25-1.21-7.41 0-3.72 1.08-6.91 1.07-3.18 3.15-5.51t5.15-3.65 7.06-1.32q3.79 0 6.65 1.23 2.85 1.22 5.13 3.49m16.7 30.2q-4.42 0-6.78-2.49-2.36-2.5-2.36-6.88v-18.91h-3.47q-.66 0-1.12-.43t-.46-1.29v-3.23l5.44-.89 1.72-9.24q.16-.66.63-1.03.46-.36 1.18-.36h4.23v10.66h9.04v5.81h-9.04v18.34q0 1.59.77 2.48.78.89 2.13.89.76 0 1.27-.18t.89-.38.68-.38.59-.18q.37 0 .6.18t.49.54l2.44 3.96q-1.78 1.49-4.09 2.25t-4.78.76m35.77-30.73-1.85 2.94q-.33.53-.69.74-.36.22-.93.22-.59 0-1.27-.33-.67-.33-1.56-.74-.89-.42-2.03-.75t-2.69-.33q-2.41 0-3.78 1.03-1.37 1.02-1.37 2.67 0 1.09.71 1.83t1.88 1.3q1.17.57 2.66 1.01 1.48.45 3.02.97 1.53.53 3.02 1.21 1.48.68 2.65 1.72 1.17 1.03 1.88 2.49.71 1.45.71 3.5 0 2.44-.87 4.5-.88 2.06-2.59 3.56-1.72 1.5-4.24 2.35-2.53.84-5.83.84-1.75 0-3.41-.32-1.67-.31-3.2-.87-1.54-.56-2.84-1.32-1.31-.76-2.3-1.65l1.89-3.1q.36-.56.85-.86.5-.3 1.26-.3t1.43.43q.68.43 1.57.93.89.49 2.1.92 1.2.43 3.05.43 1.45 0 2.49-.35 1.04-.34 1.72-.91.67-.56.99-1.3.31-.74.31-1.53 0-1.19-.71-1.95t-1.88-1.32-2.67-1.01q-1.51-.44-3.07-.97-1.57-.53-3.07-1.24t-2.67-1.8q-1.18-1.08-1.89-2.67-.71-1.58-.71-3.83 0-2.08.83-3.96.82-1.88 2.43-3.28 1.6-1.4 3.99-2.24 2.39-.85 5.53-.85 3.49 0 6.36 1.16 2.88 1.15 4.79 3.03m43.79 20.17v-15.18q-1.39-1.68-3.02-2.38-1.63-.69-3.51-.69-1.85 0-3.34.69-1.48.7-2.54 2.1-1.05 1.4-1.61 3.56-.57 2.16-.57 5.1 0 2.97.48 5.03t1.37 3.37q.89 1.3 2.18 1.88t2.87.58q2.54 0 4.32-1.06 1.79-1.06 3.37-3m0-39.01h8.15v49.04h-4.98q-1.62 0-2.05-1.49l-.69-3.26q-2.05 2.34-4.7 3.79-2.66 1.45-6.19 1.45-2.77 0-5.08-1.15-2.31-1.16-3.98-3.35t-2.57-5.43q-.91-3.23-.91-7.39 0-3.76 1.02-7 1.03-3.23 2.94-5.61 1.91-2.37 4.59-3.71 2.67-1.33 6-1.33 2.84 0 4.85.89 2.02.89 3.6 2.4zm16.47 15.18h8.18v33.86h-8.18zm9.3-9.87q0 1.06-.42 1.98-.43.93-1.14 1.62t-1.67 1.11q-.96.41-2.05.41-1.05 0-1.99-.41-.94-.42-1.64-1.11-.69-.69-1.1-1.62-.41-.92-.41-1.98 0-1.08.41-2.04t1.1-1.65q.7-.69 1.64-1.11.94-.41 1.99-.41 1.09 0 2.05.41.96.42 1.67 1.11t1.14 1.65q.42.96.42 2.04m29.7 13.53-1.84 2.94q-.33.53-.7.74-.36.22-.92.22-.6 0-1.27-.33-.68-.33-1.57-.74-.89-.42-2.03-.75t-2.69-.33q-2.41 0-3.78 1.03-1.37 1.02-1.37 2.67 0 1.09.71 1.83t1.88 1.3q1.18.57 2.66 1.01 1.49.45 3.02.97 1.53.53 3.02 1.21 1.48.68 2.66 1.72 1.17 1.03 1.88 2.49.71 1.45.71 3.5 0 2.44-.88 4.5-.87 2.06-2.59 3.56-1.71 1.5-4.24 2.35-2.52.84-5.82.84-1.75 0-3.42-.32-1.67-.31-3.2-.87t-2.84-1.32q-1.3-.76-2.29-1.65l1.88-3.1q.36-.56.86-.86.49-.3 1.25-.3t1.44.43q.67.43 1.56.93.9.49 2.1.92t3.05.43q1.46 0 2.49-.35 1.04-.34 1.72-.91.68-.56.99-1.3t.31-1.53q0-1.19-.71-1.95t-1.88-1.32-2.67-1.01q-1.5-.44-3.07-.97t-3.07-1.24-2.67-1.8q-1.17-1.08-1.88-2.67-.71-1.58-.71-3.83 0-2.08.82-3.96.83-1.88 2.43-3.28t3.99-2.24q2.39-.85 5.53-.85 3.5 0 6.37 1.16 2.87 1.15 4.78 3.03m14.66 6.24v15.18q1.38 1.68 3.02 2.38 1.63.69 3.54.69 1.85 0 3.34-.69 1.48-.7 2.52-2.11 1.04-1.42 1.6-3.58.56-2.17.56-5.1 0-2.97-.48-5.04-.47-2.06-1.37-3.35-.89-1.28-2.16-1.88-1.27-.59-2.88-.59-2.55 0-4.33 1.07t-3.36 3.02m-1.09-8.41.66 3.13q2.08-2.34 4.72-3.79t6.2-1.45q2.77 0 5.07 1.15 2.29 1.15 3.96 3.35 1.66 2.19 2.57 5.41t.91 7.38q0 3.79-1.03 7.03-1.02 3.23-2.92 5.61-1.89 2.37-4.58 3.71-2.69 1.33-6.03 1.33-2.83 0-4.85-.87-2.01-.87-3.59-2.43v13.86h-8.16v-44.91h4.99q1.58 0 2.08 1.49m30.52-16.67h8.15v49.04h-8.15zm34.19 40.29v-5.7q-3.53.16-5.94.61-2.41.44-3.86 1.13-1.45.7-2.08 1.62-.63.93-.63 2.01 0 2.15 1.27 3.07 1.27.93 3.32.93 2.51 0 4.34-.91t3.58-2.76m-17.23-17.78-1.45-2.61q5.84-5.34 14.06-5.34 2.97 0 5.31.97 2.35.97 3.96 2.7 1.62 1.74 2.46 4.15.84 2.4.84 5.28v21.38h-3.69q-1.16 0-1.78-.35-.63-.34-.99-1.4l-.73-2.44q-1.29 1.15-2.51 2.03-1.22.87-2.54 1.47-1.32.59-2.82.9-1.5.32-3.32.32-2.14 0-3.96-.58-1.81-.58-3.13-1.73-1.32-1.16-2.05-2.87-.72-1.72-.72-4 0-1.28.42-2.55.43-1.27 1.41-2.43.97-1.15 2.52-2.18 1.55-1.02 3.81-1.78t5.27-1.24q3-.47 6.86-.57v-1.98q0-3.4-1.45-5.04-1.45-1.63-4.19-1.63-1.98 0-3.29.46-1.3.46-2.29 1.04t-1.8 1.04-1.8.46q-.85 0-1.45-.44-.59-.45-.96-1.04m57.06-7.33h6.54l-18.45 43.17q-.36.85-.94 1.3-.58.44-1.77.44h-6.07l6.34-13.59-13.7-31.32h7.16q.96 0 1.5.46.55.47.81 1.06l7.2 17.56q.36.89.61 1.78.24.89.48 1.81.29-.92.59-1.83t.66-1.8l6.8-17.52q.26-.66.87-1.09t1.37-.43"/></svg>