<svg xmlns="http://www.w3.org/2000/svg" width="800" height="600" viewBox="0 0 800 600"><rect width="100%" height="100%" fill="#0d9488"/><path fill="#FFFFFF" d="M178.05 328.165q-5.02 0-7.7-2.83t-2.68-7.82v-21.49h-3.94q-.75 0-1.28-.48-.52-.49-.52-1.47v-3.67l6.19-1.01 1.95-10.5q.18-.75.71-1.17.52-.41 1.35-.41h4.8v12.11h10.27v6.6h-10.27v20.85q0 1.8.88 2.81.88 1.02 2.42 1.02.86 0 1.44-.21.58-.2 1.01-.43.44-.22.77-.43.34-.21.68-.21.41 0 .67.21.27.21.57.62l2.77 4.5q-2.02 1.68-4.65 2.55-2.62.86-5.44.86m22.39-24.26h17.48q0-1.8-.51-3.4-.51-1.59-1.52-2.79t-2.57-1.89q-1.55-.7-3.62-.7-4.01 0-6.31 2.29-2.31 2.29-2.95 6.49m23.63 5.59h-23.82q.23 2.96 1.05 5.11.83 2.16 2.18 3.57 1.35 1.4 3.2 2.1 1.86.69 4.11.69t3.88-.53q1.63-.52 2.85-1.16 1.22-.63 2.14-1.16.92-.52 1.78-.52 1.16 0 1.73.86l2.66 3.37q-1.54 1.8-3.45 3.02t-3.99 1.95q-2.09.73-4.24 1.03-2.16.3-4.18.3-4.02 0-7.47-1.33t-6-3.94q-2.55-2.6-4.01-6.45-1.46-3.84-1.46-8.9 0-3.94 1.27-7.41 1.28-3.47 3.66-6.04 2.38-2.56 5.81-4.06t7.75-1.5q3.63 0 6.71 1.16 3.07 1.16 5.29 3.39 2.21 2.23 3.47 5.48 1.25 3.24 1.25 7.4 0 2.1-.45 2.83-.45.74-1.72.74m17.13-18.72.64 3.04q1.16-1.16 2.46-2.16 1.29-.99 2.74-1.68 1.44-.7 3.09-1.09t3.6-.39q3.15 0 5.59 1.06 2.43 1.07 4.07 3 1.63 1.94 2.47 4.62t.84 5.9v24.49h-9.26v-24.49q0-3.52-1.61-5.45-1.61-1.94-4.91-1.94-2.4 0-4.5 1.09t-3.98 2.97v27.82h-9.26v-38.48h5.66q1.8 0 2.36 1.69m41.59 13.13h17.48q0-1.8-.51-3.4-.51-1.59-1.52-2.79t-2.57-1.89q-1.55-.7-3.62-.7-4.01 0-6.31 2.29-2.31 2.29-2.95 6.49m23.63 5.59H282.6q.23 2.96 1.05 5.11.83 2.16 2.18 3.57 1.35 1.4 3.21 2.1 1.85.69 4.1.69t3.88-.53q1.63-.52 2.85-1.16 1.22-.63 2.14-1.16.92-.52 1.78-.52 1.16 0 1.73.86l2.66 3.37q-1.54 1.8-3.45 3.02t-3.99 1.95q-2.09.73-4.24 1.03-2.16.3-4.18.3-4.02 0-7.47-1.33t-6-3.94q-2.55-2.6-4.01-6.45-1.46-3.84-1.46-8.9 0-3.94 1.27-7.41 1.28-3.47 3.66-6.04 2.38-2.56 5.81-4.06t7.75-1.5q3.63 0 6.71 1.16 3.07 1.16 5.29 3.39 2.21 2.23 3.47 5.48 1.25 3.24 1.25 7.4 0 2.1-.45 2.83-.45.74-1.72.74m17.28-18.08.57 4.35q1.8-3.45 4.27-5.42 2.48-1.97 5.85-1.97 2.66 0 4.28 1.17l-.6 6.93q-.19.68-.55.96-.35.28-.95.28-.57 0-1.67-.19-1.11-.18-2.16-.18-1.54 0-2.74.45t-2.15 1.29q-.96.84-1.69 2.04t-1.37 2.74v23.7h-9.26v-38.48h5.44q1.42 0 1.98.51.57.51.75 1.82m20.1-2.33h9.3v38.48h-9.3zm10.58-11.21q0 1.2-.49 2.25t-1.29 1.84q-.81.79-1.9 1.26-1.08.46-2.32.46-1.2 0-2.27-.46-1.07-.47-1.86-1.26-.78-.79-1.25-1.84t-.47-2.25q0-1.23.47-2.32t1.25-1.88q.79-.78 1.86-1.25t2.27-.47q1.24 0 2.32.47 1.09.47 1.9 1.25.8.79 1.29 1.88t.49 2.32m20.14 49.69h-9.27v-31.5l-3.33-.52q-1.09-.23-1.75-.77-.65-.55-.65-1.56v-3.79h5.73v-2.85q0-3.3 1-5.92.99-2.63 2.85-4.47 1.85-1.83 4.52-2.81 2.66-.97 6-.97 2.66 0 4.95.71l-.19 4.65q-.04.53-.3.84-.26.32-.69.49-.44.17-1 .23-.56.05-1.2.05-1.65 0-2.94.36-1.3.35-2.2 1.24-.9.88-1.36 2.32-.47 1.45-.47 3.58v2.55h10.01v6.6h-9.71zm22.23-23.66h17.48q0-1.8-.51-3.4-.5-1.59-1.52-2.79-1.01-1.2-2.56-1.89-1.56-.7-3.62-.7-4.02 0-6.32 2.29-2.31 2.29-2.95 6.49m23.63 5.59h-23.81q.22 2.96 1.05 5.11.82 2.16 2.17 3.57 1.35 1.4 3.21 2.1 1.85.69 4.1.69t3.89-.53q1.63-.52 2.85-1.16 1.21-.63 2.13-1.16.92-.52 1.78-.52 1.17 0 1.73.86l2.66 3.37q-1.54 1.8-3.45 3.02t-3.99 1.95-4.24 1.03-4.18.3q-4.01 0-7.46-1.33t-6-3.94q-2.55-2.6-4.02-6.45-1.46-3.84-1.46-8.9 0-3.94 1.28-7.41 1.27-3.47 3.65-6.04 2.38-2.56 5.82-4.06 3.43-1.5 7.74-1.5 3.64 0 6.71 1.16 3.08 1.16 5.29 3.39t3.47 5.48q1.25 3.24 1.25 7.4 0 2.1-.45 2.83-.45.74-1.72.74m36.6-9.15v17.25q1.57 1.91 3.43 2.7 1.86.78 3.92.78 2.14 0 3.84-.77 1.71-.77 2.91-2.4t1.84-4.16q.63-2.53.63-6.06 0-6.33-2.1-9.16-2.1-2.84-6.03-2.84-2.67 0-4.65 1.22-1.99 1.22-3.79 3.44m0-28.51v21.98q2.32-2.44 5.16-3.88 2.83-1.44 6.46-1.44 3.34 0 6.02 1.31t4.58 3.77q1.89 2.45 2.9 5.94 1.02 3.49 1.02 7.84 0 4.69-1.17 8.51-1.16 3.82-3.31 6.54-2.16 2.72-5.2 4.22t-6.75 1.5q-1.8 0-3.26-.35-1.46-.36-2.7-1t-2.27-1.55q-1.03-.92-1.97-2.05l-.41 2.59q-.23.98-.77 1.39t-1.48.41h-6.11v-55.73zm40.61 32.07h17.48q0-1.8-.51-3.4-.51-1.59-1.52-2.79t-2.57-1.89q-1.55-.7-3.62-.7-4.01 0-6.31 2.29-2.31 2.29-2.95 6.49m23.63 5.59H497.4q.23 2.96 1.05 5.11.83 2.16 2.18 3.57 1.35 1.4 3.21 2.1 1.85.69 4.1.69t3.88-.53q1.63-.52 2.85-1.16 1.22-.63 2.14-1.16.92-.52 1.78-.52 1.16 0 1.73.86l2.66 3.37q-1.54 1.8-3.45 3.02t-3.99 1.95q-2.09.73-4.24 1.03-2.16.3-4.18.3-4.02 0-7.47-1.33t-6-3.94q-2.55-2.6-4.01-6.45-1.46-3.84-1.46-8.9 0-3.94 1.27-7.41 1.28-3.47 3.66-6.04 2.38-2.56 5.81-4.06t7.75-1.5q3.63 0 6.71 1.16 3.07 1.16 5.29 3.39 2.21 2.23 3.47 5.48 1.25 3.24 1.25 7.4 0 2.1-.45 2.83-.45.74-1.72.74m29.43 8.13v-6.49q-4.01.19-6.75.7-2.73.51-4.38 1.29-1.65.79-2.37 1.84-.71 1.05-.71 2.29 0 2.43 1.45 3.48 1.44 1.06 3.76 1.06 2.85 0 4.94-1.04 2.08-1.03 4.06-3.13m-19.57-20.21-1.65-2.96q6.64-6.08 15.97-6.08 3.38 0 6.04 1.11 2.66 1.1 4.5 3.07t2.8 4.71q.95 2.74.95 6v24.3h-4.2q-1.31 0-2.02-.39-.72-.4-1.13-1.6l-.82-2.77q-1.47 1.31-2.85 2.3-1.39 1-2.89 1.67-1.5.68-3.21 1.03-1.7.36-3.77.36-2.43 0-4.5-.66-2.06-.65-3.56-1.96-1.5-1.32-2.32-3.27-.83-1.95-.83-4.53 0-1.47.49-2.91t1.59-2.76q1.11-1.31 2.87-2.47 1.76-1.17 4.33-2.03t5.98-1.4q3.42-.55 7.8-.66v-2.25q0-3.86-1.65-5.72t-4.76-1.86q-2.25 0-3.73.53t-2.61 1.18q-1.12.66-2.04 1.18-.92.53-2.04.53-.98 0-1.65-.51-.68-.5-1.09-1.18m67.31-3.56-2.44 3.37q-.41.53-.8.83-.4.3-1.15.3-.71 0-1.38-.43-.68-.43-1.62-.98-.93-.54-2.23-.97-1.29-.43-3.2-.43-2.44 0-4.28.88t-3.06 2.53q-1.21 1.65-1.81 3.99-.6 2.35-.6 5.31 0 3.07.65 5.47.66 2.4 1.9 4.03 1.23 1.64 3 2.48 1.76.84 3.97.84t3.58-.54 2.31-1.2 1.63-1.2 1.56-.54q1.12 0 1.68.86l2.67 3.37q-1.54 1.8-3.34 3.02t-3.73 1.95-3.98 1.03q-2.04.3-4.07.3-3.56 0-6.71-1.33t-5.51-3.88-3.73-6.24q-1.37-3.7-1.37-8.42 0-4.24 1.22-7.86t3.58-6.26 5.85-4.14 8.02-1.5q4.32 0 7.56 1.38 3.24 1.39 5.83 3.98m15.41-22.02v21.38q2.25-2.1 4.95-3.41t6.34-1.31q3.15 0 5.59 1.06 2.44 1.07 4.07 3 1.63 1.94 2.47 4.62.85 2.68.85 5.9v24.49h-9.27v-24.49q0-3.52-1.61-5.45-1.61-1.94-4.91-1.94-2.4 0-4.5 1.09t-3.98 2.97v27.82h-9.26v-55.73z"/></svg>