<svg xmlns="http://www.w3.org/2000/svg" width="800" height="600" viewBox="0 0 800 600"><rect width="100%" height="100%" fill="#6b7280"/><path fill="#FFFFFF" d="M181.265 337.925q-6.77 0-10.38-3.81-3.61-3.82-3.61-10.53v-28.94h-5.3q-1.01 0-1.72-.66-.71-.65-.71-1.97v-4.95l8.34-1.36 2.62-14.14q.25-1.01.96-1.56.71-.56 1.82-.56h6.46v16.31h13.84v8.89h-13.84v28.08q0 2.42 1.19 3.78 1.19 1.37 3.26 1.37 1.16 0 1.94-.28t1.36-.58q.59-.3 1.04-.58t.91-.28q.55 0 .91.28.35.28.76.83l3.73 6.06q-2.72 2.27-6.26 3.44-3.53 1.16-7.32 1.16m30.15-32.68h23.53q0-2.42-.68-4.57-.68-2.14-2.05-3.76-1.36-1.61-3.46-2.55-2.09-.93-4.87-.93-5.4 0-8.51 3.08t-3.96 8.73m31.81 7.53h-32.07q.31 3.99 1.42 6.89 1.11 2.91 2.93 4.8 1.81 1.89 4.31 2.83 2.5.93 5.53.93t5.23-.71q2.2-.7 3.84-1.56t2.88-1.57q1.23-.7 2.4-.7 1.56 0 2.32 1.16l3.58 4.54q-2.07 2.43-4.64 4.07-2.58 1.64-5.38 2.62-2.8.99-5.71 1.39-2.9.41-5.63.41-5.4 0-10.05-1.8-4.64-1.79-8.08-5.3-3.43-3.51-5.4-8.68-1.97-5.18-1.97-12 0-5.3 1.72-9.97 1.71-4.67 4.92-8.13t7.83-5.48 10.43-2.02q4.9 0 9.04 1.56 4.14 1.57 7.12 4.57 2.98 3.01 4.67 7.38t1.69 9.97q0 2.83-.61 3.81-.6.99-2.32.99m39.64 10.96v-8.74q-5.4.25-9.09.94-3.68.68-5.9 1.74-2.23 1.06-3.19 2.47-.96 1.42-.96 3.08 0 3.28 1.95 4.7 1.94 1.41 5.07 1.41 3.84 0 6.64-1.39 2.81-1.38 5.48-4.21m-26.36-27.22-2.22-3.99q8.94-8.18 21.51-8.18 4.55 0 8.13 1.49 3.59 1.49 6.06 4.14 2.48 2.65 3.77 6.34 1.28 3.68 1.28 8.08v32.72h-5.65q-1.77 0-2.73-.53t-1.51-2.15l-1.11-3.73q-1.97 1.76-3.84 3.1t-3.89 2.25-4.32 1.39-5.07.48q-3.29 0-6.06-.89-2.78-.88-4.8-2.65-2.02-1.76-3.13-4.39t-1.11-6.11q0-1.97.65-3.91.66-1.95 2.15-3.72 1.49-1.76 3.86-3.33 2.38-1.57 5.83-2.73 3.46-1.16 8.06-1.89t10.5-.88v-3.03q0-5.21-2.22-7.71t-6.41-2.5q-3.03 0-5.03.71-1.99.71-3.51 1.59-1.51.89-2.75 1.59-1.24.71-2.75.71-1.31 0-2.22-.68t-1.47-1.59m62.72 40.6h-12.47v-51.81h7.63q2.42 0 3.18 2.27l.81 3.84q1.36-1.52 2.85-2.78t3.18-2.17 3.64-1.44q1.94-.53 4.26-.53 4.9 0 8.06 2.65 3.15 2.65 4.72 7.04 1.21-2.57 3.03-4.41 1.82-1.85 3.99-3.01t4.62-1.72q2.45-.55 4.92-.55 4.3 0 7.63 1.31t5.6 3.84q2.28 2.52 3.46 6.16 1.19 3.64 1.19 8.33v32.98h-12.47v-32.98q0-4.95-2.17-7.45-2.18-2.5-6.37-2.5-1.92 0-3.56.66t-2.88 1.9q-1.23 1.23-1.94 3.1t-.71 4.29v32.98h-12.52v-32.98q0-5.2-2.1-7.57-2.09-2.38-6.13-2.38-2.73 0-5.08 1.34t-4.37 3.66zm161.15-51.81h9.49l-16.46 51.81h-10q-1.72 0-2.37-2.22l-9.29-29.95q-.46-1.51-.84-3t-.63-3.01q-.3 1.52-.68 3.06t-.83 3.05l-9.45 29.85q-.6 2.22-2.67 2.22h-9.6l-16.41-51.81h9.95q1.36 0 2.32.65.96.66 1.26 1.67l7.43 27.67q.55 2.28.98 4.45t.73 4.34q.56-2.17 1.19-4.34t1.34-4.45l8.58-27.77q.31-1.01 1.19-1.67.88-.65 2.15-.65h5.5q1.31 0 2.25.65.93.66 1.24 1.67l8.33 27.77q.65 2.28 1.23 4.47.59 2.2 1.14 4.37.66-4.29 1.87-8.84l7.63-27.67q.35-1.01 1.26-1.67.91-.65 2.17-.65m39.49-.81q5.76 0 10.48 1.87t8.08 5.3 5.18 8.38q1.81 4.95 1.81 11.06 0 6.16-1.81 11.11-1.82 4.95-5.18 8.44-3.36 3.48-8.08 5.35t-10.48 1.87q-5.81 0-10.55-1.87-4.75-1.87-8.11-5.35-3.36-3.49-5.2-8.44t-1.84-11.11q0-6.11 1.84-11.06t5.2-8.38 8.11-5.3q4.74-1.87 10.55-1.87m0 43.78q6.46 0 9.57-4.34t3.11-12.73q0-8.38-3.11-12.77-3.11-4.4-9.57-4.4-6.56 0-9.72 4.42t-3.16 12.75q0 8.34 3.16 12.7 3.16 4.37 9.72 4.37m46.11-39.84.75 5.86q2.43-4.65 5.76-7.3t7.88-2.65q3.58 0 5.76 1.56l-.81 9.35q-.25.9-.73 1.28t-1.29.38q-.76 0-2.25-.25t-2.9-.25q-2.07 0-3.69.6-1.62.61-2.9 1.75-1.29 1.13-2.28 2.75-.98 1.61-1.84 3.68v31.92h-12.47v-51.81h7.32q1.92 0 2.68.68.75.68 1.01 2.45m26.66-26.36h12.47v42.97h2.33q1.26 0 1.99-.33.73-.32 1.49-1.33l12.88-15.91q.81-1.06 1.79-1.62.99-.55 2.55-.55h11.42l-16.11 19.24q-1.72 2.27-3.74 3.48 1.06.76 1.89 1.77.84 1.01 1.59 2.17l17.27 25.15h-11.26q-1.46 0-2.52-.48t-1.77-1.74l-13.23-19.65q-.71-1.16-1.47-1.51-.75-.36-2.27-.36h-2.83v23.74h-12.47z"/></svg>