<svg xmlns="http://www.w3.org/2000/svg" width="800" height="600" viewBox="0 0 800 600"><rect width="100%" height="100%" fill="#dc2626"/><path fill="#FFFFFF" d="M162.215 291.37h7.32v30.27h-7.32zm8.32-8.82q0 .95-.39 1.77-.38.83-1.01 1.45-.64.62-1.49.99-.86.36-1.83.36-.95 0-1.79-.36-.84-.37-1.46-.99t-.99-1.45q-.36-.82-.36-1.77 0-.97.36-1.83.37-.85.99-1.47t1.46-.99 1.79-.37q.97 0 1.83.37.85.37 1.49.99.63.62 1.01 1.47.39.86.39 1.83m12.74 10.15.5 2.39q.92-.91 1.94-1.7 1.01-.78 2.15-1.32 1.13-.55 2.43-.86t2.83-.31q2.48 0 4.4.84t3.2 2.36 1.95 3.63q.66 2.11.66 4.65v19.26h-7.28v-19.26q0-2.78-1.27-4.3t-3.87-1.52q-1.89 0-3.54.86t-3.12 2.33v21.89h-7.29v-30.27h4.45q1.42 0 1.86 1.33m37.05 29.41q-3.95 0-6.06-2.23-2.11-2.22-2.11-6.15v-16.9h-3.09q-.59 0-1.01-.38-.41-.39-.41-1.15v-2.89l4.87-.8 1.53-8.26q.15-.59.56-.92.41-.32 1.06-.32h3.78v9.53h8.08v5.19h-8.08v16.4q0 1.42.69 2.21.7.8 1.91.8.67 0 1.13-.16t.8-.34.6-.34q.27-.16.53-.16.33 0 .53.16.21.16.45.49l2.18 3.54q-1.59 1.32-3.66 2-2.06.68-4.28.68m17.62-19.08h13.74q0-1.42-.4-2.67-.39-1.26-1.19-2.2-.8-.95-2.02-1.49-1.23-.55-2.85-.55-3.15 0-4.97 1.8-1.81 1.8-2.31 5.11m18.58 4.39h-18.73q.18 2.33.82 4.03.65 1.69 1.72 2.8 1.06 1.11 2.52 1.65 1.46.55 3.23.55t3.05-.42q1.28-.41 2.24-.91t1.68-.91q.73-.42 1.41-.42.91 0 1.35.68l2.1 2.66q-1.21 1.41-2.72 2.37-1.5.96-3.14 1.54-1.64.57-3.33.81-1.7.23-3.29.23-3.16 0-5.87-1.04-2.72-1.05-4.72-3.1-2.01-2.05-3.16-5.08-1.15-3.02-1.15-7 0-3.1 1-5.83 1.01-2.73 2.88-4.75t4.57-3.2 6.09-1.18q2.87 0 5.29.92 2.41.91 4.15 2.67 1.75 1.75 2.73 4.3.99 2.55.99 5.83 0 1.65-.35 2.23-.36.57-1.36.57m13.6-14.22.44 3.42q1.42-2.71 3.37-4.26 1.94-1.55 4.6-1.55 2.09 0 3.36.92l-.47 5.45q-.15.54-.43.76t-.75.22q-.44 0-1.31-.15t-1.7-.15q-1.21 0-2.15.36-.95.35-1.7 1.01-.75.67-1.33 1.61-.57.95-1.07 2.16v18.64h-7.29v-30.27h4.28q1.12 0 1.56.4t.59 1.43m15.81-1.83h7.32v30.27h-7.32zm8.32-8.82q0 .95-.38 1.77-.39.83-1.02 1.45t-1.49.99q-.86.36-1.83.36-.94 0-1.78-.36-.84-.37-1.46-.99t-.99-1.45q-.37-.82-.37-1.77 0-.97.37-1.83.37-.85.99-1.47t1.46-.99 1.78-.37q.97 0 1.83.37t1.49.99 1.02 1.47q.38.86.38 1.83m19.83 8.35q3.36 0 6.12 1.09 2.75 1.09 4.72 3.1 1.96 2.01 3.02 4.9t1.06 6.46q0 3.6-1.06 6.49t-3.02 4.92q-1.97 2.04-4.72 3.13-2.76 1.09-6.12 1.09-3.4 0-6.17-1.09t-4.74-3.13q-1.96-2.03-3.03-4.92-1.08-2.89-1.08-6.49 0-3.57 1.08-6.46 1.07-2.89 3.03-4.9 1.97-2.01 4.74-3.1t6.17-1.09m0 25.58q3.77 0 5.59-2.54 1.81-2.54 1.81-7.43 0-4.9-1.81-7.47-1.82-2.56-5.59-2.56-3.84 0-5.68 2.58-1.85 2.58-1.85 7.45 0 4.86 1.85 7.42 1.84 2.55 5.68 2.55m26.93-23.28.44 3.42q1.42-2.71 3.36-4.26 1.95-1.55 4.61-1.55 2.09 0 3.36.92l-.47 5.45q-.15.54-.43.76t-.75.22q-.45 0-1.32-.15t-1.69-.15q-1.21 0-2.16.36-.94.35-1.69 1.01-.75.67-1.33 1.61-.57.95-1.08 2.16v18.64h-7.28v-30.27h4.28q1.12 0 1.56.4t.59 1.43m36.34 0 .45 3.42q1.41-2.71 3.36-4.26t4.6-1.55q2.09 0 3.36.92l-.47 5.45q-.15.54-.43.76t-.75.22q-.44 0-1.31-.15t-1.7-.15q-1.21 0-2.15.36-.95.35-1.7 1.01-.75.67-1.33 1.61-.57.95-1.07 2.16v18.64h-7.29v-30.27h4.28q1.12 0 1.56.4.45.4.59 1.43m21.33 9.83h13.75q0-1.42-.4-2.67-.4-1.26-1.19-2.2-.8-.95-2.03-1.49-1.22-.55-2.84-.55-3.16 0-4.97 1.8-1.82 1.8-2.32 5.11m18.59 4.39h-18.74q.18 2.33.83 4.03.65 1.69 1.71 2.8t2.52 1.65q1.46.55 3.23.55t3.06-.42q1.28-.41 2.24-.91t1.68-.91q.72-.42 1.4-.42.92 0 1.36.68l2.09 2.66q-1.21 1.41-2.71 2.37-1.51.96-3.14 1.54-1.64.57-3.34.81-1.69.23-3.29.23-3.15 0-5.87-1.04-2.71-1.05-4.72-3.1-2-2.05-3.15-5.08-1.15-3.02-1.15-7 0-3.1 1-5.83t2.88-4.75q1.87-2.02 4.57-3.2t6.09-1.18q2.86 0 5.28.92 2.42.91 4.16 2.67 1.74 1.75 2.73 4.3t.99 5.83q0 1.65-.36 2.23-.35.57-1.35.57m27.28-12.77-1.65 2.62q-.29.47-.62.67-.32.19-.82.19-.53 0-1.14-.3-.6-.29-1.4-.66t-1.82-.66q-1.01-.3-2.4-.3-2.15 0-3.38.92-1.22.91-1.22 2.38 0 .98.63 1.64.64.67 1.68 1.17 1.05.5 2.38.9t2.7.87 2.7 1.07q1.33.61 2.37 1.54 1.05.93 1.68 2.23.64 1.29.64 3.12 0 2.19-.78 4.03-.79 1.84-2.32 3.19-1.53 1.34-3.79 2.09t-5.21.75q-1.56 0-3.05-.28t-2.86-.78-2.54-1.18q-1.16-.68-2.05-1.48l1.68-2.77q.33-.5.77-.77.44-.26 1.12-.26t1.28.38q.61.39 1.41.83.79.44 1.87.82 1.08.39 2.73.39 1.3 0 2.22-.31.93-.31 1.54-.81.6-.5.88-1.17.28-.66.28-1.37 0-1.06-.63-1.74t-1.68-1.18-2.39-.9-2.75-.87q-1.4-.47-2.74-1.11-1.34-.63-2.39-1.6-1.05-.98-1.68-2.39-.63-1.42-.63-3.43 0-1.85.73-3.54.74-1.68 2.17-2.93t3.57-2.01q2.14-.75 4.94-.75 3.13 0 5.7 1.03 2.56 1.04 4.27 2.72m15.9 27.46q-3.95 0-6.06-2.23-2.11-2.22-2.11-6.15v-16.9h-3.09q-.59 0-1.01-.38-.41-.39-.41-1.15v-2.89l4.87-.8 1.53-8.26q.15-.59.56-.92.41-.32 1.06-.32h3.78v9.53h8.08v5.19h-8.08v16.4q0 1.42.69 2.21.7.8 1.91.8.67 0 1.13-.16t.8-.34.6-.34q.27-.16.53-.16.33 0 .53.16.21.16.45.49l2.18 3.54q-1.59 1.32-3.66 2-2.06.68-4.28.68m27.85-8.29v-5.1q-3.15.15-5.31.54-2.15.4-3.45 1.02t-1.86 1.45q-.56.82-.56 1.8 0 1.91 1.14 2.74 1.13.83 2.96.83 2.24 0 3.88-.81 1.64-.82 3.2-2.47m-15.4-15.9-1.29-2.33q5.22-4.78 12.56-4.78 2.66 0 4.75.87 2.1.87 3.54 2.42 1.45 1.55 2.2 3.7.75 2.16.75 4.72v19.12h-3.3q-1.03 0-1.6-.31-.56-.31-.88-1.25l-.65-2.19q-1.15 1.04-2.24 1.82t-2.27 1.31-2.53.81q-1.34.28-2.96.28-1.92 0-3.54-.51-1.62-.52-2.8-1.55-1.18-1.04-1.83-2.57t-.65-3.57q0-1.15.38-2.29.39-1.13 1.26-2.16.87-1.04 2.25-1.95 1.39-.92 3.41-1.59 2.02-.68 4.71-1.11 2.68-.43 6.13-.52v-1.77q0-3.03-1.3-4.49-1.29-1.47-3.74-1.47-1.77 0-2.94.42-1.16.41-2.05.93-.88.51-1.61.93-.72.41-1.6.41-.77 0-1.3-.4t-.86-.93m48.15-6.55h7.28v30.27h-4.45q-1.45 0-1.83-1.33l-.5-2.42q-1.86 1.89-4.1 3.06-2.24 1.16-5.28 1.16-2.48 0-4.38-.84-1.91-.84-3.2-2.37-1.3-1.54-1.97-3.65-.66-2.11-.66-4.64v-19.24h7.29v19.24q0 2.77 1.28 4.29t3.85 1.52q1.89 0 3.54-.84t3.13-2.32zm20.91 1.83.45 3.42q1.41-2.71 3.36-4.26t4.6-1.55q2.09 0 3.36.92l-.47 5.45q-.15.54-.43.76t-.75.22q-.44 0-1.31-.15t-1.7-.15q-1.21 0-2.15.36-.95.35-1.7 1.01-.75.67-1.33 1.61-.57.95-1.07 2.16v18.64h-7.29v-30.27h4.28q1.12 0 1.56.4.45.4.59 1.43m31.57 20.62v-5.1q-3.16.15-5.31.54-2.16.4-3.45 1.02-1.3.62-1.86 1.45-.56.82-.56 1.8 0 1.91 1.13 2.74 1.14.83 2.97.83 2.24 0 3.88-.81 1.63-.82 3.2-2.47m-15.4-15.9-1.3-2.33q5.22-4.78 12.57-4.78 2.65 0 4.75.87 2.09.87 3.54 2.42 1.44 1.55 2.19 3.7.76 2.16.76 4.72v19.12h-3.31q-1.03 0-1.59-.31t-.88-1.25l-.65-2.19q-1.15 1.04-2.25 1.82-1.09.78-2.27 1.31t-2.52.81-2.96.28q-1.92 0-3.54-.51-1.63-.52-2.81-1.55-1.18-1.04-1.83-2.57-.64-1.53-.64-3.57 0-1.15.38-2.29.38-1.13 1.25-2.16.87-1.04 2.26-1.95 1.39-.92 3.41-1.59 2.02-.68 4.7-1.11 2.69-.43 6.14-.52v-1.77q0-3.03-1.3-4.49-1.3-1.47-3.75-1.47-1.77 0-2.93.42-1.17.41-2.05.93-.89.51-1.61.93-.72.41-1.61.41-.76 0-1.3-.4-.53-.4-.85-.93m35.66-5.22.51 2.39q.91-.91 1.93-1.7 1.02-.78 2.15-1.32 1.14-.55 2.44-.86 1.29-.31 2.83-.31 2.48 0 4.39.84 1.92.84 3.2 2.36 1.29 1.52 1.95 3.63t.66 4.65v19.26h-7.28v-19.26q0-2.78-1.27-4.3t-3.87-1.52q-1.88 0-3.54.86-1.65.86-3.12 2.33v21.89h-7.29v-30.27h4.46q1.41 0 1.85 1.33m37.06 29.41q-3.96 0-6.07-2.23-2.11-2.22-2.11-6.15v-16.9h-3.09q-.59 0-1.01-.38-.41-.39-.41-1.15v-2.89l4.87-.8 1.53-8.26q.15-.59.56-.92.42-.32 1.07-.32h3.77v9.53h8.08v5.19h-8.08v16.4q0 1.42.69 2.21.7.8 1.91.8.68 0 1.13-.16.46-.16.8-.34t.6-.34q.27-.16.54-.16.32 0 .53.16.2.16.44.49l2.18 3.54q-1.59 1.32-3.66 2-2.06.68-4.27.68"/></svg>