<svg xmlns="http://www.w3.org/2000/svg" width="800" height="600" viewBox="0 0 800 600"><rect width="100%" height="100%" fill="#dc2626"/><path fill="#FFFFFF" d="m196.525 285.7-2.76 3.83q-.47.59-.91.93-.45.34-1.3.34-.81 0-1.57-.49-.77-.49-1.83-1.1-1.06-.62-2.53-1.11-1.46-.49-3.63-.49-2.76 0-4.85 1-2.08 1-3.46 2.87t-2.06 4.53q-.68 2.65-.68 6.01 0 3.49.74 6.21.75 2.72 2.15 4.57 1.4 1.84 3.4 2.8t4.5.96q2.51 0 4.06-.62t2.62-1.36q1.06-.74 1.84-1.36.79-.62 1.77-.62 1.27 0 1.91.98l3.02 3.83q-1.74 2.04-3.79 3.42-2.03 1.38-4.22 2.21t-4.51 1.17q-2.31.34-4.61.34-4.04 0-7.61-1.51t-6.24-4.4q-2.68-2.89-4.23-7.08-1.55-4.18-1.55-9.54 0-4.8 1.38-8.9t4.06-7.1q2.67-3 6.63-4.7 3.95-1.7 9.09-1.7 4.89 0 8.56 1.58 3.68 1.57 6.61 4.5m17.47-24.95v24.23q2.55-2.38 5.61-3.87t7.18-1.49q3.57 0 6.34 1.22 2.76 1.21 4.61 3.4t2.8 5.22q.96 3.04.96 6.7v27.75h-10.5v-27.75q0-4-1.83-6.19-1.82-2.19-5.56-2.19-2.72 0-5.1 1.24-2.38 1.23-4.51 3.35v31.54h-10.5v-63.16zm45.73 36.34h19.81q0-2.04-.58-3.84-.57-1.81-1.72-3.17t-2.91-2.15q-1.76-.78-4.1-.78-4.55 0-7.16 2.59-2.62 2.59-3.34 7.35m26.78 6.33h-26.99q.25 3.36 1.19 5.81.93 2.44 2.46 4.03 1.53 1.6 3.64 2.38 2.1.79 4.65.79t4.4-.6q1.85-.59 3.23-1.31 1.38-.73 2.42-1.32 1.04-.6 2.02-.6 1.32 0 1.96.98l3.01 3.83q-1.74 2.04-3.91 3.42-2.16 1.38-4.52 2.21t-4.81 1.17q-2.44.34-4.73.34-4.55 0-8.46-1.51t-6.8-4.46q-2.89-2.96-4.55-7.31-1.66-4.36-1.66-10.1 0-4.46 1.45-8.39 1.44-3.93 4.14-6.84 2.7-2.92 6.59-4.62t8.78-1.7q4.12 0 7.6 1.32 3.49 1.32 6 3.85 2.5 2.53 3.93 6.2 1.42 3.68 1.42 8.4 0 2.38-.51 3.21-.51.82-1.95.82m23.88 20.49h-10.5v-35.7l-3.78-.6q-1.23-.25-1.98-.87-.74-.61-.74-1.76v-4.29h6.5v-3.23q0-3.74 1.13-6.72 1.13-2.97 3.23-5.06 2.1-2.08 5.12-3.18 3.02-1.11 6.8-1.11 3.02 0 5.61.81l-.21 5.27q-.04.59-.34.96-.3.36-.79.55t-1.12.25q-.64.07-1.36.07-1.87 0-3.34.4t-2.49 1.4-1.55 2.64q-.53 1.63-.53 4.06v2.89h11.35v7.48h-11.01zm71.57-38.21-2.76 3.83q-.47.59-.92.93-.44.34-1.29.34-.81 0-1.57-.49-.77-.49-1.83-1.1-1.06-.62-2.53-1.11t-3.63-.49q-2.77 0-4.85 1t-3.46 2.87-2.06 4.53q-.68 2.65-.68 6.01 0 3.49.74 6.21t2.15 4.57q1.4 1.84 3.4 2.8 1.99.96 4.5.96t4.06-.62 2.61-1.36q1.07-.74 1.85-1.36.79-.62 1.77-.62 1.27 0 1.91.98l3.02 3.83q-1.75 2.04-3.79 3.42t-4.23 2.21q-2.18.83-4.5 1.17t-4.61.34q-4.04 0-7.61-1.51t-6.25-4.4q-2.67-2.89-4.23-7.08-1.55-4.18-1.55-9.54 0-4.8 1.38-8.9 1.39-4.1 4.06-7.1 2.68-3 6.63-4.7 3.96-1.7 9.1-1.7 4.89 0 8.56 1.58 3.68 1.57 6.61 4.5m26.27-6.08q4.84 0 8.81 1.58 3.98 1.57 6.8 4.46 2.83 2.89 4.36 7.05 1.53 4.17 1.53 9.31 0 5.19-1.53 9.35-1.53 4.17-4.36 7.1-2.82 2.93-6.8 4.5-3.97 1.58-8.81 1.58-4.89 0-8.89-1.58-3.99-1.57-6.82-4.5-2.82-2.93-4.38-7.1-1.55-4.16-1.55-9.35 0-5.14 1.55-9.31 1.56-4.16 4.38-7.05 2.83-2.89 6.82-4.46 4-1.58 8.89-1.58m0 36.85q5.44 0 8.05-3.65 2.61-3.66 2.61-10.71 0-7.06-2.61-10.75-2.61-3.7-8.05-3.7-5.53 0-8.19 3.72-2.65 3.71-2.65 10.73 0 7.01 2.65 10.69 2.66 3.67 8.19 3.67m48.83-36.85q4.84 0 8.82 1.58 3.97 1.57 6.8 4.46 2.82 2.89 4.35 7.05 1.53 4.17 1.53 9.31 0 5.19-1.53 9.35-1.53 4.17-4.35 7.1-2.83 2.93-6.8 4.5-3.98 1.58-8.82 1.58-4.89 0-8.88-1.58-4-1.57-6.83-4.5-2.82-2.93-4.37-7.1-1.55-4.16-1.55-9.35 0-5.14 1.55-9.31 1.55-4.16 4.37-7.05 2.83-2.89 6.83-4.46 3.99-1.58 8.88-1.58m0 36.85q5.44 0 8.05-3.65 2.62-3.66 2.62-10.71 0-7.06-2.62-10.75-2.61-3.7-8.05-3.7-5.53 0-8.18 3.72-2.66 3.71-2.66 10.73 0 7.01 2.66 10.69 2.65 3.67 8.18 3.67m29.54-55.72h10.49v36.17h1.96q1.06 0 1.68-.27.61-.28 1.25-1.13l10.84-13.39q.68-.89 1.51-1.36t2.14-.47h9.61l-13.56 16.2q-1.44 1.91-3.14 2.93.89.64 1.59 1.49t1.34 1.82l14.53 21.17h-9.47q-1.24 0-2.13-.4-.89-.41-1.49-1.47l-11.13-16.53q-.6-.98-1.23-1.28-.64-.3-1.92-.3h-2.38v19.98h-10.49zm45.77 19.55h10.54v43.61h-10.54zm11.98-12.7q0 1.36-.55 2.55t-1.47 2.08q-.91.89-2.14 1.42t-2.64.53q-1.36 0-2.57-.53t-2.1-1.42-1.43-2.08q-.53-1.19-.53-2.55 0-1.41.53-2.64.54-1.23 1.43-2.12.89-.9 2.1-1.43t2.57-.53q1.41 0 2.64.53t2.14 1.43q.92.89 1.47 2.12t.55 2.64m18.36 14.62.73 3.44q1.31-1.32 2.78-2.44 1.47-1.13 3.1-1.92 1.64-.78 3.51-1.23t4.08-.45q3.57 0 6.33 1.22 2.76 1.21 4.61 3.4t2.81 5.22q.95 3.04.95 6.7v27.75h-10.49v-27.75q0-4-1.83-6.19t-5.57-2.19q-2.72 0-5.1 1.24-2.38 1.23-4.5 3.35v31.54h-10.5V280.3h6.42q2.04 0 2.67 1.92m54.79 18.82q1.95 0 3.4-.53 1.44-.53 2.4-1.46.95-.94 1.44-2.26.49-1.31.49-2.89 0-3.22-1.93-5.12-1.94-1.89-5.8-1.89-3.87 0-5.81 1.89-1.93 1.9-1.93 5.12 0 1.53.49 2.85t1.44 2.28q.96.95 2.43 1.48 1.46.53 3.38.53m11.85 24.83q0-1.28-.76-2.09-.77-.81-2.08-1.25-1.32-.45-3.09-.66-1.76-.21-3.74-.32-1.97-.11-4.08-.19-2.1-.09-4.1-.34-1.74.98-2.82 2.29-1.09 1.32-1.09 3.07 0 1.14.58 2.14.57 1 1.82 1.72 1.26.73 3.26 1.13 1.99.4 4.88.4 2.94 0 5.06-.44 2.13-.45 3.51-1.24 1.38-.78 2.02-1.87.63-1.08.63-2.35m-2.08-44.08h12.54v3.91q0 1.87-2.25 2.3l-3.91.72q.89 2.25.89 4.93 0 3.23-1.3 5.84-1.29 2.62-3.59 4.44-2.29 1.83-5.42 2.83-3.12 1-6.73 1-1.28 0-2.47-.13t-2.34-.34q-2.04 1.23-2.04 2.76 0 1.32 1.21 1.94 1.22.61 3.21.87 2 .26 4.55.32t5.23.27q2.68.22 5.23.75t4.54 1.68q2 1.14 3.21 3.12t1.21 5.08q0 2.89-1.42 5.61t-4.12 4.85q-2.7 2.12-6.63 3.42-3.93 1.29-8.95 1.29-4.93 0-8.58-.95-3.66-.96-6.08-2.55-2.42-1.6-3.61-3.68t-1.19-4.33q0-3.06 1.84-5.13 1.85-2.06 5.08-3.29-1.74-.89-2.76-2.38t-1.02-3.91q0-.98.36-2.02t1.06-2.06q.71-1.02 1.77-1.93 1.06-.92 2.51-1.64-3.32-1.79-5.21-4.76-1.89-2.98-1.89-6.97 0-3.23 1.29-5.84 1.3-2.62 3.62-4.47 2.31-1.85 5.48-2.82 3.17-.98 6.91-.98 2.8 0 5.27.57 2.46.58 4.5 1.68"/></svg>