<svg xmlns="http://www.w3.org/2000/svg" width="800" height="600" viewBox="0 0 800 600"><rect width="100%" height="100%" fill="#2563eb"/><path fill="#FFFFFF" d="m191.56 285.57-2.38 3.78q-.42.68-.89.96t-1.19.28q-.77 0-1.64-.43-.87-.42-2.02-.95-1.14-.54-2.61-.96-1.47-.43-3.46-.43-3.11 0-4.87 1.32t-1.76 3.44q0 1.41.91 2.36.91.96 2.42 1.68t3.42 1.3q1.92.57 3.89 1.25 1.98.68 3.89 1.55t3.42 2.21 2.43 3.21q.91 1.87.91 4.51 0 3.14-1.13 5.8-1.12 2.65-3.33 4.59-2.21 1.93-5.46 3.02-3.26 1.08-7.51 1.08-2.25 0-4.39-.4-2.15-.41-4.13-1.13-1.97-.72-3.65-1.7t-2.96-2.13l2.43-3.99q.46-.72 1.1-1.11.64-.38 1.62-.38.97 0 1.85.55.87.56 2.01 1.19 1.15.64 2.7 1.19 1.55.56 3.93.56 1.87 0 3.21-.45t2.21-1.17 1.28-1.68q.4-.95.4-1.97 0-1.53-.91-2.51-.92-.98-2.42-1.7-1.51-.72-3.45-1.3-1.93-.57-3.95-1.25t-3.95-1.59q-1.94-.92-3.44-2.32-1.51-1.4-2.43-3.44-.91-2.04-.91-4.93 0-2.68 1.06-5.1 1.06-2.43 3.13-4.23 2.06-1.81 5.14-2.89 3.08-1.09 7.12-1.09 4.5 0 8.2 1.49t6.16 3.91m18.87-24.27v24.23q2.55-2.38 5.61-3.87t7.18-1.49q3.57 0 6.34 1.22 2.76 1.21 4.61 3.4t2.8 5.22q.96 3.04.96 6.7v27.75h-10.5v-27.75q0-4-1.83-6.19-1.82-2.19-5.56-2.19-2.72 0-5.1 1.24-2.38 1.23-4.51 3.35v31.54h-10.5V261.3zm56.74 18.87q4.84 0 8.82 1.58 3.97 1.57 6.8 4.46 2.82 2.89 4.35 7.05 1.53 4.17 1.53 9.31 0 5.19-1.53 9.35-1.53 4.17-4.35 7.1-2.83 2.93-6.8 4.5-3.98 1.58-8.82 1.58-4.89 0-8.88-1.58-4-1.57-6.82-4.5-2.83-2.93-4.38-7.1-1.55-4.16-1.55-9.35 0-5.14 1.55-9.31 1.55-4.16 4.38-7.05 2.82-2.89 6.82-4.46 3.99-1.58 8.88-1.58m0 36.85q5.44 0 8.05-3.65 2.62-3.66 2.62-10.71 0-7.06-2.62-10.75-2.61-3.7-8.05-3.7-5.53 0-8.18 3.72-2.66 3.71-2.66 10.73 0 7.01 2.66 10.69 2.65 3.67 8.18 3.67m40.03-23.42v19.55q1.79 2.17 3.89 3.06 2.11.9 4.57.9 2.38 0 4.29-.9 1.92-.89 3.26-2.72 1.33-1.82 2.06-4.61.72-2.78.72-6.56 0-3.83-.62-6.48-.61-2.66-1.76-4.32t-2.78-2.42q-1.64-.77-3.72-.77-3.28 0-5.57 1.39-2.3 1.38-4.34 3.88m-1.4-10.83.85 4.03q2.68-3.01 6.08-4.88t7.99-1.87q3.57 0 6.52 1.48 2.96 1.49 5.1 4.32 2.15 2.82 3.32 6.97 1.17 4.14 1.17 9.5 0 4.88-1.32 9.05-1.32 4.16-3.76 7.22-2.45 3.06-5.91 4.79-3.46 1.72-7.76 1.72-3.65 0-6.24-1.13-2.6-1.13-4.64-3.12v17.85h-10.49v-57.85h6.41q2.04 0 2.68 1.92m60.18-1.92h10.54v43.61h-10.54zm11.99-12.7q0 1.36-.56 2.55-.55 1.19-1.46 2.08-.92.89-2.15 1.42t-2.63.53q-1.36 0-2.57-.53-1.22-.53-2.11-1.42t-1.42-2.08-.53-2.55q0-1.41.53-2.64t1.42-2.12q.89-.9 2.11-1.43 1.21-.53 2.57-.53 1.4 0 2.63.53t2.15 1.43q.91.89 1.46 2.12.56 1.23.56 2.64m18.36 14.62.72 3.44q1.32-1.32 2.78-2.44 1.47-1.13 3.11-1.92 1.63-.78 3.5-1.23t4.08-.45q3.57 0 6.33 1.22 2.77 1.21 4.62 3.4 1.84 2.19 2.8 5.22.96 3.04.96 6.7v27.75h-10.5v-27.75q0-4-1.83-6.19t-5.57-2.19q-2.72 0-5.1 1.24-2.38 1.23-4.5 3.35v31.54h-10.5v-43.61h6.42q2.04 0 2.68 1.92m53.38 42.37q-5.7 0-8.74-3.21t-3.04-8.86v-24.35h-4.46q-.85 0-1.44-.56-.6-.55-.6-1.65v-4.17l7.01-1.15 2.21-11.9q.22-.85.81-1.31.6-.47 1.53-.47h5.44v13.73h11.65v7.48h-11.65v23.63q0 2.04 1 3.18 1 1.15 2.74 1.15.98 0 1.64-.23.66-.24 1.15-.49.48-.26.87-.49.38-.23.76-.23.47 0 .77.23.29.23.63.7l3.15 5.1q-2.3 1.91-5.27 2.89-2.98.98-6.16.98m25.37-27.5h19.8q0-2.04-.57-3.84-.57-1.81-1.72-3.17t-2.91-2.15q-1.77-.78-4.1-.78-4.55 0-7.16 2.59-2.62 2.59-3.34 7.35m26.77 6.33h-26.98q.25 3.36 1.19 5.81.93 2.44 2.46 4.03 1.53 1.6 3.64 2.38 2.1.79 4.65.79t4.4-.6q1.85-.59 3.23-1.31 1.38-.73 2.42-1.32 1.04-.6 2.02-.6 1.32 0 1.95.98l3.02 3.83q-1.74 2.04-3.91 3.42t-4.52 2.21q-2.36.83-4.81 1.17-2.44.34-4.74.34-4.54 0-8.45-1.51t-6.8-4.46q-2.89-2.96-4.55-7.31-1.66-4.36-1.66-10.1 0-4.46 1.45-8.39 1.44-3.93 4.14-6.84 2.7-2.92 6.59-4.62t8.77-1.7q4.13 0 7.61 1.32 3.49 1.32 5.99 3.85 2.51 2.53 3.94 6.2 1.42 3.68 1.42 8.4 0 2.38-.51 3.21-.51.82-1.96.82m19.6-20.48.63 4.93q2.04-3.91 4.85-6.14 2.8-2.23 6.63-2.23 3.02 0 4.84 1.31l-.68 7.87q-.21.76-.61 1.08-.41.32-1.09.32-.63 0-1.89-.21-1.25-.22-2.44-.22-1.74 0-3.1.51-1.36.52-2.45 1.47-1.08.96-1.91 2.32t-1.55 3.1v26.86h-10.5v-43.61h6.16q1.62 0 2.26.58.63.57.85 2.06m22.78-2.64h10.54v43.61h-10.54zm11.98-12.7q0 1.36-.55 2.55t-1.47 2.08q-.91.89-2.14 1.42-1.24.53-2.64.53-1.36 0-2.57-.53t-2.1-1.42q-.9-.89-1.43-2.08t-.53-2.55q0-1.41.53-2.64t1.43-2.12q.89-.9 2.1-1.43t2.57-.53q1.4 0 2.64.53 1.23.53 2.14 1.43.92.89 1.47 2.12t.55 2.64m28.56 12.02q4.85 0 8.82 1.58 3.97 1.57 6.8 4.46t4.36 7.05q1.53 4.17 1.53 9.31 0 5.19-1.53 9.35-1.53 4.17-4.36 7.1t-6.8 4.5q-3.97 1.58-8.82 1.58-4.89 0-8.88-1.58-4-1.57-6.82-4.5-2.83-2.93-4.38-7.1-1.55-4.16-1.55-9.35 0-5.14 1.55-9.31 1.55-4.16 4.38-7.05 2.82-2.89 6.82-4.46 3.99-1.58 8.88-1.58m0 36.85q5.44 0 8.06-3.65 2.61-3.66 2.61-10.71 0-7.06-2.61-10.75-2.62-3.7-8.06-3.7-5.52 0-8.18 3.72-2.66 3.71-2.66 10.73 0 7.01 2.66 10.69 2.66 3.67 8.18 3.67m38.8-33.53.64 4.93q2.04-3.91 4.85-6.14 2.8-2.23 6.63-2.23 3.01 0 4.84 1.31l-.68 7.87q-.21.76-.61 1.08-.41.32-1.09.32-.64 0-1.89-.21-1.25-.22-2.44-.22-1.75 0-3.11.51-1.36.52-2.44 1.47-1.08.96-1.91 2.32t-1.55 3.1v26.86h-10.5v-43.61h6.16q1.62 0 2.25.58.64.57.85 2.06"/></svg>